<?xml version="1.0" encoding="UTF-8" standalone="no"?>
<!DOCTYPE svg PUBLIC "-//W3C//DTD SVG 1.1//EN"
 "http://www.w3.org/Graphics/SVG/1.1/DTD/svg11.dtd">
<!-- Generated by graphviz version 14.1.5 (20260411.2331)
 -->
<!-- Title: G Pages: 1 -->
<svg width="1341pt" height="367pt"
 viewBox="0.00 0.00 1341.00 367.00" xmlns="http://www.w3.org/2000/svg" xmlns:xlink="http://www.w3.org/1999/xlink">
<g id="graph0" class="graph" transform="scale(1 1) rotate(0) translate(4 362.5)">
<title>G</title>
<polygon fill="white" stroke="none" points="-4,4 -4,-362.5 1336.88,-362.5 1336.88,4 -4,4"/>
<g id="clust1" class="cluster">
<title>cluster_legend</title>
<polygon fill="none" stroke="black" points="8,-169 8,-350.5 527,-350.5 527,-169 8,-169"/>
<text xml:space="preserve" text-anchor="middle" x="267.5" y="-333.2" font-family="Times,serif" font-size="14.00">Legend</text>
<text xml:space="preserve" text-anchor="middle" x="267.5" y="-316.7" font-family="Times,serif" font-size="14.00">Note: edges in legend only show most general applicability.</text>
</g>
<!-- _6be42d3db9cf20b926086b834a126e2c64aa8afeb6017f801e12d8e940b021d5 -->
<g id="node1" class="node">
<title>_6be42d3db9cf20b926086b834a126e2c64aa8afeb6017f801e12d8e940b021d5</title>
<polygon fill="none" stroke="black" points="99.12,-301.5 26.88,-301.5 26.88,-265.5 99.12,-265.5 99.12,-301.5"/>
<text xml:space="preserve" text-anchor="middle" x="63" y="-278.45" font-family="Times,serif" font-size="14.00">owl:Thing</text>
</g>
<!-- _cfbd84720b96d207f7d3ef32e86ab2451472ca207077c2bdb8581e452d8a663c -->
<g id="node2" class="node">
<title>_cfbd84720b96d207f7d3ef32e86ab2451472ca207077c2bdb8581e452d8a663c</title>
<polygon fill="none" stroke="black" points="121.62,-213 16.38,-213 16.38,-177 127.62,-177 127.62,-207 121.62,-213"/>
<polyline fill="none" stroke="black" points="121.62,-213 121.62,-207"/>
<polyline fill="none" stroke="black" points="127.62,-207 121.62,-207"/>
<text xml:space="preserve" text-anchor="middle" x="72" y="-189.95" font-family="Times,serif" font-size="14.00">dcterms:Standard</text>
</g>
<!-- _6be42d3db9cf20b926086b834a126e2c64aa8afeb6017f801e12d8e940b021d5&#45;&gt;_cfbd84720b96d207f7d3ef32e86ab2451472ca207077c2bdb8581e452d8a663c -->
<g id="edge1" class="edge">
<title>_6be42d3db9cf20b926086b834a126e2c64aa8afeb6017f801e12d8e940b021d5&#45;&gt;_cfbd84720b96d207f7d3ef32e86ab2451472ca207077c2bdb8581e452d8a663c</title>
<path fill="none" stroke="black" d="M62.45,-265.27C62.36,-255.24 62.61,-242.36 64,-231 64.27,-228.82 64.61,-226.58 65.01,-224.33"/>
<polygon fill="black" stroke="black" points="68.38,-225.31 66.99,-214.8 61.53,-223.88 68.38,-225.31"/>
<text xml:space="preserve" text-anchor="middle" x="121" y="-234.2" font-family="Times,serif" font-size="14.00">dcterms:conformsTo</text>
</g>
<!-- _dff2c21a2c6c4241453ba27c8017f28b476e1c237fe5224d565322ea299e6044 -->
<g id="node3" class="node">
<title>_dff2c21a2c6c4241453ba27c8017f28b476e1c237fe5224d565322ea299e6044</title>
<polygon fill="none" stroke="black" points="245.5,-301.5 154.5,-301.5 154.5,-265.5 245.5,-265.5 245.5,-301.5"/>
<text xml:space="preserve" text-anchor="middle" x="200" y="-278.45" font-family="Times,serif" font-size="14.00">owl:Ontology</text>
</g>
<!-- _017b8d0cbb5ff892223344da777a622e10a1fcc984f4a2c596609f45595f8a0f -->
<g id="node4" class="node">
<title>_017b8d0cbb5ff892223344da777a622e10a1fcc984f4a2c596609f45595f8a0f</title>
<polygon fill="none" stroke="black" points="236.5,-213 145.5,-213 145.5,-177 236.5,-177 236.5,-213"/>
<text xml:space="preserve" text-anchor="middle" x="191" y="-189.95" font-family="Times,serif" font-size="14.00">owl:Ontology</text>
</g>
<!-- _dff2c21a2c6c4241453ba27c8017f28b476e1c237fe5224d565322ea299e6044&#45;&gt;_017b8d0cbb5ff892223344da777a622e10a1fcc984f4a2c596609f45595f8a0f -->
<g id="edge2" class="edge">
<title>_dff2c21a2c6c4241453ba27c8017f28b476e1c237fe5224d565322ea299e6044&#45;&gt;_017b8d0cbb5ff892223344da777a622e10a1fcc984f4a2c596609f45595f8a0f</title>
<path fill="none" stroke="black" d="M198.22,-265.41C197.01,-253.76 195.37,-238.05 193.97,-224.52"/>
<polygon fill="none" stroke="black" points="197.48,-224.44 192.96,-214.86 190.52,-225.16 197.48,-224.44"/>
<text xml:space="preserve" text-anchor="middle" x="229.31" y="-234.2" font-family="Times,serif" font-size="14.00">owl:imports</text>
</g>
<!-- _75f66095baa60592fcc7e97fa489026e7d6d757a63fd11c6624a34d06a3633b4 -->
<g id="node5" class="node">
<title>_75f66095baa60592fcc7e97fa489026e7d6d757a63fd11c6624a34d06a3633b4</title>
<polygon fill="none" stroke="black" points="367.5,-301.5 276.5,-301.5 276.5,-265.5 367.5,-265.5 367.5,-301.5"/>
<text xml:space="preserve" text-anchor="middle" x="322" y="-278.45" font-family="Times,serif" font-size="14.00">owl:Ontology</text>
</g>
<!-- _44a157d5fabe5bbf54dd1f384ccfb8f02ceba69069cdc8888499da1b7930714f -->
<g id="node6" class="node">
<title>_44a157d5fabe5bbf54dd1f384ccfb8f02ceba69069cdc8888499da1b7930714f</title>
<polygon fill="none" stroke="#9b9b9b" points="389.25,-213 254.75,-213 254.75,-177 389.25,-177 389.25,-213"/>
<text xml:space="preserve" text-anchor="middle" x="322" y="-189.95" font-family="Times,serif" font-size="14.00">owl:versionIRI object</text>
</g>
<!-- _75f66095baa60592fcc7e97fa489026e7d6d757a63fd11c6624a34d06a3633b4&#45;&gt;_44a157d5fabe5bbf54dd1f384ccfb8f02ceba69069cdc8888499da1b7930714f -->
<g id="edge3" class="edge">
<title>_75f66095baa60592fcc7e97fa489026e7d6d757a63fd11c6624a34d06a3633b4&#45;&gt;_44a157d5fabe5bbf54dd1f384ccfb8f02ceba69069cdc8888499da1b7930714f</title>
<path fill="none" stroke="gray" d="M322,-265.41C322,-253.76 322,-238.05 322,-224.52"/>
<polygon fill="gray" stroke="gray" points="325.5,-224.86 322,-214.86 318.5,-224.86 325.5,-224.86"/>
<text xml:space="preserve" text-anchor="middle" x="362.88" y="-234.2" font-family="Times,serif" font-size="14.00">owl:versionIRI</text>
</g>
<!-- _98e8856b3f61d9865cc05c9747a4bfc52a3d58baaf797c31ee80a7df9b92ed57 -->
<g id="node7" class="node">
<title>_98e8856b3f61d9865cc05c9747a4bfc52a3d58baaf797c31ee80a7df9b92ed57</title>
<polygon fill="#9b9b9b" stroke="black" points="472.5,-301.5 393.5,-301.5 393.5,-265.5 472.5,-265.5 472.5,-301.5"/>
<text xml:space="preserve" text-anchor="middle" x="433" y="-278.45" font-family="Times,serif" font-size="14.00">prof:Profile</text>
</g>
<!-- _07166cd5e228fb7ddf859e561327ce51f60071d1183187816b22c1a8ccd0726f -->
<g id="node8" class="node">
<title>_07166cd5e228fb7ddf859e561327ce51f60071d1183187816b22c1a8ccd0726f</title>
<polygon fill="none" stroke="black" points="512.62,-213 407.38,-213 407.38,-177 518.62,-177 518.62,-207 512.62,-213"/>
<polyline fill="none" stroke="black" points="512.62,-213 512.62,-207"/>
<polyline fill="none" stroke="black" points="518.62,-207 512.62,-207"/>
<text xml:space="preserve" text-anchor="middle" x="463" y="-189.95" font-family="Times,serif" font-size="14.00">dcterms:Standard</text>
</g>
<!-- _98e8856b3f61d9865cc05c9747a4bfc52a3d58baaf797c31ee80a7df9b92ed57&#45;&gt;_07166cd5e228fb7ddf859e561327ce51f60071d1183187816b22c1a8ccd0726f -->
<g id="edge4" class="edge">
<title>_98e8856b3f61d9865cc05c9747a4bfc52a3d58baaf797c31ee80a7df9b92ed57&#45;&gt;_07166cd5e228fb7ddf859e561327ce51f60071d1183187816b22c1a8ccd0726f</title>
<path fill="none" stroke="black" d="M438.93,-265.41C443.05,-253.52 448.64,-237.41 453.39,-223.7"/>
<polygon fill="black" stroke="black" points="456.58,-214.5 457.56,-225.42 455.34,-218.07 453.31,-223.95 453.31,-223.95 453.31,-223.95 455.34,-218.07 449.05,-222.47 456.58,-214.5"/>
<text xml:space="preserve" text-anchor="middle" x="493.81" y="-234.2" font-family="Times,serif" font-size="14.00">prof:isProfileOf</text>
</g>
<!-- _dc7a6d281f729cbeaa414a9670addb56912f2be036498ebf27c9d1ae3c2d462e -->
<g id="node9" class="node">
<title>_dc7a6d281f729cbeaa414a9670addb56912f2be036498ebf27c9d1ae3c2d462e</title>
<polygon fill="none" stroke="#9b9b9b" points="1019.5,-213 790.5,-213 790.5,-177 1019.5,-177 1019.5,-213"/>
<text xml:space="preserve" text-anchor="middle" x="905" y="-189.95" font-family="Times,serif" font-size="14.00">IRI &#45; http://www.w3.org/ns/dx/prof/1.0</text>
</g>
<!-- _f2e5b02a171f32dd0a9863c360551d6757f93137b44a6a36e87bb072376e7351 -->
<g id="node10" class="node">
<title>_f2e5b02a171f32dd0a9863c360551d6757f93137b44a6a36e87bb072376e7351</title>
<polygon fill="#9b9b9b" stroke="black" points="1332.88,-213 1037.12,-213 1037.12,-177 1332.88,-177 1332.88,-213"/>
<text xml:space="preserve" text-anchor="middle" x="1185" y="-189.95" font-family="Times,serif" font-size="14.00">IRI &#45; https://ontology.unifiedcyberontology.org/owl</text>
</g>
<!-- _7f0b776cae8d16592c6d9e8962113c57c870f93eb5e6441397193fadbaa27336 -->
<g id="node12" class="node">
<title>_7f0b776cae8d16592c6d9e8962113c57c870f93eb5e6441397193fadbaa27336</title>
<polygon fill="#9b9b9b" stroke="black" points="1313,-124.5 1057,-124.5 1057,-88.5 1313,-88.5 1313,-124.5"/>
<text xml:space="preserve" text-anchor="middle" x="1185" y="-101.45" font-family="Times,serif" font-size="14.00">IRI &#45; https://www.w3.org/ns/owl&#45;profile/DL</text>
</g>
<!-- _f2e5b02a171f32dd0a9863c360551d6757f93137b44a6a36e87bb072376e7351&#45;&gt;_7f0b776cae8d16592c6d9e8962113c57c870f93eb5e6441397193fadbaa27336 -->
<g id="edge10" class="edge">
<title>_f2e5b02a171f32dd0a9863c360551d6757f93137b44a6a36e87bb072376e7351&#45;&gt;_7f0b776cae8d16592c6d9e8962113c57c870f93eb5e6441397193fadbaa27336</title>
<path fill="none" stroke="black" d="M1185,-176.91C1185,-165.26 1185,-149.55 1185,-136.02"/>
<polygon fill="black" stroke="black" points="1185,-126.07 1189.5,-136.07 1185,-129.85 1185,-136.07 1185,-136.07 1185,-136.07 1185,-129.85 1180.5,-136.07 1185,-126.07"/>
<text xml:space="preserve" text-anchor="middle" x="1228.12" y="-145.7" font-family="Times,serif" font-size="14.00">prof:isProfileOf</text>
</g>
<!-- _627e9c1735622e528062db7287b981f4013f21bbee8eff189433c048089ba284 -->
<g id="node13" class="node">
<title>_627e9c1735622e528062db7287b981f4013f21bbee8eff189433c048089ba284</title>
<polygon fill="#9b9b9b" stroke="black" points="939.5,-124.5 704.5,-124.5 704.5,-88.5 939.5,-88.5 939.5,-124.5"/>
<text xml:space="preserve" text-anchor="middle" x="822" y="-101.45" font-family="Times,serif" font-size="14.00">IRI &#45; http://www.w3.org/ns/shacl&#45;shacl#</text>
</g>
<!-- _f2e5b02a171f32dd0a9863c360551d6757f93137b44a6a36e87bb072376e7351&#45;&gt;_627e9c1735622e528062db7287b981f4013f21bbee8eff189433c048089ba284 -->
<g id="edge6" class="edge">
<title>_f2e5b02a171f32dd0a9863c360551d6757f93137b44a6a36e87bb072376e7351&#45;&gt;_627e9c1735622e528062db7287b981f4013f21bbee8eff189433c048089ba284</title>
<path fill="none" stroke="black" d="M1111.98,-176.6C1052.51,-162.43 968.49,-142.41 906.19,-127.56"/>
<polygon fill="black" stroke="black" points="907.23,-124.21 896.69,-125.3 905.6,-131.02 907.23,-124.21"/>
<text xml:space="preserve" text-anchor="middle" x="1093.01" y="-145.7" font-family="Times,serif" font-size="14.00">dcterms:conformsTo</text>
</g>
<!-- _7e7fcdca06e527648f2f5f757451b77691e8c0694969f0d9bb23885f136d5618 -->
<g id="node11" class="node">
<title>_7e7fcdca06e527648f2f5f757451b77691e8c0694969f0d9bb23885f136d5618</title>
<polygon fill="#9b9b9b" stroke="black" points="772.5,-213 543.5,-213 543.5,-177 772.5,-177 772.5,-213"/>
<text xml:space="preserve" text-anchor="middle" x="658" y="-189.95" font-family="Times,serif" font-size="14.00">IRI &#45; http://example.org/shapes/sh&#45;prof</text>
</g>
<!-- _7e7fcdca06e527648f2f5f757451b77691e8c0694969f0d9bb23885f136d5618&#45;&gt;_627e9c1735622e528062db7287b981f4013f21bbee8eff189433c048089ba284 -->
<g id="edge7" class="edge">
<title>_7e7fcdca06e527648f2f5f757451b77691e8c0694969f0d9bb23885f136d5618&#45;&gt;_627e9c1735622e528062db7287b981f4013f21bbee8eff189433c048089ba284</title>
<path fill="none" stroke="black" d="M690.79,-176.7C716.07,-163.37 751.26,-144.81 778.83,-130.27"/>
<polygon fill="black" stroke="black" points="780.43,-133.38 787.64,-125.62 777.17,-127.19 780.43,-133.38"/>
<text xml:space="preserve" text-anchor="middle" x="811.69" y="-145.7" font-family="Times,serif" font-size="14.00">dcterms:conformsTo</text>
</g>
<!-- _21f31b9aca886546c72fb466117bc537f0b6af676684d8317e31cfb6143036f6 -->
<g id="node16" class="node">
<title>_21f31b9aca886546c72fb466117bc537f0b6af676684d8317e31cfb6143036f6</title>
<polygon fill="none" stroke="black" points="1298.75,-36 1071.25,-36 1071.25,0 1298.75,0 1298.75,-36"/>
<text xml:space="preserve" text-anchor="middle" x="1185" y="-12.95" font-family="Times,serif" font-size="14.00">IRI &#45; http://www.w3.org/2002/07/owl#</text>
</g>
<!-- _7f0b776cae8d16592c6d9e8962113c57c870f93eb5e6441397193fadbaa27336&#45;&gt;_21f31b9aca886546c72fb466117bc537f0b6af676684d8317e31cfb6143036f6 -->
<g id="edge11" class="edge">
<title>_7f0b776cae8d16592c6d9e8962113c57c870f93eb5e6441397193fadbaa27336&#45;&gt;_21f31b9aca886546c72fb466117bc537f0b6af676684d8317e31cfb6143036f6</title>
<path fill="none" stroke="black" d="M1185,-88.41C1185,-76.76 1185,-61.05 1185,-47.52"/>
<polygon fill="black" stroke="black" points="1185,-37.57 1189.5,-47.57 1185,-41.35 1185,-47.57 1185,-47.57 1185,-47.57 1185,-41.35 1180.5,-47.57 1185,-37.57"/>
<text xml:space="preserve" text-anchor="middle" x="1228.12" y="-57.2" font-family="Times,serif" font-size="14.00">prof:isProfileOf</text>
</g>
<!-- _ed609b0ec0a592c761c42be25b554fa3cdebd02d3207994d77b68a08b4a4ebd7 -->
<g id="node17" class="node">
<title>_ed609b0ec0a592c761c42be25b554fa3cdebd02d3207994d77b68a08b4a4ebd7</title>
<polygon fill="none" stroke="black" points="923.38,-36 720.62,-36 720.62,0 923.38,0 923.38,-36"/>
<text xml:space="preserve" text-anchor="middle" x="822" y="-12.95" font-family="Times,serif" font-size="14.00">IRI &#45; http://www.w3.org/ns/shacl#</text>
</g>
<!-- _627e9c1735622e528062db7287b981f4013f21bbee8eff189433c048089ba284&#45;&gt;_ed609b0ec0a592c761c42be25b554fa3cdebd02d3207994d77b68a08b4a4ebd7 -->
<g id="edge12" class="edge">
<title>_627e9c1735622e528062db7287b981f4013f21bbee8eff189433c048089ba284&#45;&gt;_ed609b0ec0a592c761c42be25b554fa3cdebd02d3207994d77b68a08b4a4ebd7</title>
<path fill="none" stroke="black" d="M822,-88.41C822,-76.76 822,-61.05 822,-47.52"/>
<polygon fill="black" stroke="black" points="822,-37.57 826.5,-47.57 822,-41.35 822,-47.57 822,-47.57 822,-47.57 822,-41.35 817.5,-47.57 822,-37.57"/>
<text xml:space="preserve" text-anchor="middle" x="865.12" y="-57.2" font-family="Times,serif" font-size="14.00">prof:isProfileOf</text>
</g>
<!-- _c7f3d2538524bd8575cde368ba1de43430b3acf816e7c430a3ab938efef654ad -->
<g id="node14" class="node">
<title>_c7f3d2538524bd8575cde368ba1de43430b3acf816e7c430a3ab938efef654ad</title>
<polygon fill="none" stroke="black" points="783.25,-301.5 534.75,-301.5 534.75,-265.5 783.25,-265.5 783.25,-301.5"/>
<text xml:space="preserve" text-anchor="middle" x="659" y="-278.45" font-family="Times,serif" font-size="14.00">IRI &#45; http://example.org/ontology/cdo&#45;prof</text>
</g>
<!-- _c7f3d2538524bd8575cde368ba1de43430b3acf816e7c430a3ab938efef654ad&#45;&gt;_dc7a6d281f729cbeaa414a9670addb56912f2be036498ebf27c9d1ae3c2d462e -->
<g id="edge8" class="edge">
<title>_c7f3d2538524bd8575cde368ba1de43430b3acf816e7c430a3ab938efef654ad&#45;&gt;_dc7a6d281f729cbeaa414a9670addb56912f2be036498ebf27c9d1ae3c2d462e</title>
<path fill="none" stroke="black" d="M721.82,-265.06C739.75,-259.76 759.24,-253.69 777,-247.5 802.69,-238.54 830.79,-227.39 854.1,-217.76"/>
<polygon fill="none" stroke="black" points="855.16,-221.11 863.05,-214.04 852.47,-214.65 855.16,-221.11"/>
<text xml:space="preserve" text-anchor="middle" x="852.66" y="-234.2" font-family="Times,serif" font-size="14.00">owl:imports</text>
</g>
<!-- _c7f3d2538524bd8575cde368ba1de43430b3acf816e7c430a3ab938efef654ad&#45;&gt;_7e7fcdca06e527648f2f5f757451b77691e8c0694969f0d9bb23885f136d5618 -->
<g id="edge5" class="edge">
<title>_c7f3d2538524bd8575cde368ba1de43430b3acf816e7c430a3ab938efef654ad&#45;&gt;_7e7fcdca06e527648f2f5f757451b77691e8c0694969f0d9bb23885f136d5618</title>
<path fill="none" stroke="black" d="M658.8,-265.41C658.67,-253.76 658.49,-238.05 658.33,-224.52"/>
<polygon fill="black" stroke="black" points="661.83,-224.82 658.22,-214.86 654.83,-224.9 661.83,-224.82"/>
<text xml:space="preserve" text-anchor="middle" x="715.59" y="-234.2" font-family="Times,serif" font-size="14.00">dcterms:conformsTo</text>
</g>
<!-- _104e7bcaa55bc08d018828107e55543f900143a3e9d6427d84e0e78a7797f13d -->
<g id="node15" class="node">
<title>_104e7bcaa55bc08d018828107e55543f900143a3e9d6427d84e0e78a7797f13d</title>
<polygon fill="none" stroke="black" points="1009,-301.5 801,-301.5 801,-265.5 1009,-265.5 1009,-301.5"/>
<text xml:space="preserve" text-anchor="middle" x="905" y="-278.45" font-family="Times,serif" font-size="14.00">IRI &#45; http://www.w3.org/ns/dx/prof</text>
</g>
<!-- _104e7bcaa55bc08d018828107e55543f900143a3e9d6427d84e0e78a7797f13d&#45;&gt;_dc7a6d281f729cbeaa414a9670addb56912f2be036498ebf27c9d1ae3c2d462e -->
<g id="edge9" class="edge">
<title>_104e7bcaa55bc08d018828107e55543f900143a3e9d6427d84e0e78a7797f13d&#45;&gt;_dc7a6d281f729cbeaa414a9670addb56912f2be036498ebf27c9d1ae3c2d462e</title>
<path fill="none" stroke="gray" d="M905,-265.41C905,-253.76 905,-238.05 905,-224.52"/>
<polygon fill="gray" stroke="gray" points="908.5,-224.86 905,-214.86 901.5,-224.86 908.5,-224.86"/>
<text xml:space="preserve" text-anchor="middle" x="945.88" y="-234.2" font-family="Times,serif" font-size="14.00">owl:versionIRI</text>
</g>
</g>
</svg>
