<?xml version="1.0" encoding="UTF-8" standalone="no"?>
<!DOCTYPE svg PUBLIC "-//W3C//DTD SVG 1.1//EN"
 "http://www.w3.org/Graphics/SVG/1.1/DTD/svg11.dtd">
<!-- Generated by graphviz version 14.1.5 (20260411.2331)
 -->
<!-- Title: G Pages: 1 -->
<svg width="898pt" height="206pt"
 viewBox="0.00 0.00 898.00 206.00" xmlns="http://www.w3.org/2000/svg" xmlns:xlink="http://www.w3.org/1999/xlink">
<g id="graph0" class="graph" transform="scale(1 1) rotate(0) translate(4 201.5)">
<title>G</title>
<polygon fill="white" stroke="none" points="-4,4 -4,-201.5 893.5,-201.5 893.5,4 -4,4"/>
<g id="clust1" class="cluster">
<title>cluster_legend</title>
<polygon fill="none" stroke="black" points="8,-8 8,-189.5 397,-189.5 397,-8 8,-8"/>
<text xml:space="preserve" text-anchor="middle" x="202.5" y="-172.2" font-family="Times,serif" font-size="14.00">Legend</text>
<text xml:space="preserve" text-anchor="middle" x="202.5" y="-155.7" font-family="Times,serif" font-size="14.00">Note: edges in legend only show most general applicability.</text>
</g>
<!-- _6be42d3db9cf20b926086b834a126e2c64aa8afeb6017f801e12d8e940b021d5 -->
<g id="node1" class="node">
<title>_6be42d3db9cf20b926086b834a126e2c64aa8afeb6017f801e12d8e940b021d5</title>
<polygon fill="none" stroke="black" points="93.12,-140.5 20.88,-140.5 20.88,-104.5 93.12,-104.5 93.12,-140.5"/>
<text xml:space="preserve" text-anchor="middle" x="57" y="-117.45" font-family="Times,serif" font-size="14.00">owl:Thing</text>
</g>
<!-- _cfbd84720b96d207f7d3ef32e86ab2451472ca207077c2bdb8581e452d8a663c -->
<g id="node2" class="node">
<title>_cfbd84720b96d207f7d3ef32e86ab2451472ca207077c2bdb8581e452d8a663c</title>
<polygon fill="none" stroke="black" points="121.62,-52 16.38,-52 16.38,-16 127.62,-16 127.62,-46 121.62,-52"/>
<polyline fill="none" stroke="black" points="121.62,-52 121.62,-46"/>
<polyline fill="none" stroke="black" points="127.62,-46 121.62,-46"/>
<text xml:space="preserve" text-anchor="middle" x="72" y="-28.95" font-family="Times,serif" font-size="14.00">dcterms:Standard</text>
</g>
<!-- _6be42d3db9cf20b926086b834a126e2c64aa8afeb6017f801e12d8e940b021d5&#45;&gt;_cfbd84720b96d207f7d3ef32e86ab2451472ca207077c2bdb8581e452d8a663c -->
<g id="edge1" class="edge">
<title>_6be42d3db9cf20b926086b834a126e2c64aa8afeb6017f801e12d8e940b021d5&#45;&gt;_cfbd84720b96d207f7d3ef32e86ab2451472ca207077c2bdb8581e452d8a663c</title>
<path fill="none" stroke="black" d="M59.96,-104.41C61.98,-92.76 64.71,-77.05 67.05,-63.52"/>
<polygon fill="black" stroke="black" points="70.47,-64.29 68.73,-53.84 63.58,-63.1 70.47,-64.29"/>
<text xml:space="preserve" text-anchor="middle" x="122.84" y="-73.2" font-family="Times,serif" font-size="14.00">dcterms:conformsTo</text>
</g>
<!-- _dff2c21a2c6c4241453ba27c8017f28b476e1c237fe5224d565322ea299e6044 -->
<g id="node3" class="node">
<title>_dff2c21a2c6c4241453ba27c8017f28b476e1c237fe5224d565322ea299e6044</title>
<polygon fill="none" stroke="black" points="239.5,-140.5 148.5,-140.5 148.5,-104.5 239.5,-104.5 239.5,-140.5"/>
<text xml:space="preserve" text-anchor="middle" x="194" y="-117.45" font-family="Times,serif" font-size="14.00">owl:Ontology</text>
</g>
<!-- _017b8d0cbb5ff892223344da777a622e10a1fcc984f4a2c596609f45595f8a0f -->
<g id="node4" class="node">
<title>_017b8d0cbb5ff892223344da777a622e10a1fcc984f4a2c596609f45595f8a0f</title>
<polygon fill="none" stroke="black" points="236.5,-52 145.5,-52 145.5,-16 236.5,-16 236.5,-52"/>
<text xml:space="preserve" text-anchor="middle" x="191" y="-28.95" font-family="Times,serif" font-size="14.00">owl:Ontology</text>
</g>
<!-- _dff2c21a2c6c4241453ba27c8017f28b476e1c237fe5224d565322ea299e6044&#45;&gt;_017b8d0cbb5ff892223344da777a622e10a1fcc984f4a2c596609f45595f8a0f -->
<g id="edge2" class="edge">
<title>_dff2c21a2c6c4241453ba27c8017f28b476e1c237fe5224d565322ea299e6044&#45;&gt;_017b8d0cbb5ff892223344da777a622e10a1fcc984f4a2c596609f45595f8a0f</title>
<path fill="none" stroke="black" d="M193.41,-104.41C193,-92.76 192.46,-77.05 191.99,-63.52"/>
<polygon fill="none" stroke="black" points="195.5,-63.74 191.65,-53.86 188.5,-63.98 195.5,-63.74"/>
<text xml:space="preserve" text-anchor="middle" x="225.77" y="-73.2" font-family="Times,serif" font-size="14.00">owl:imports</text>
</g>
<!-- _75f66095baa60592fcc7e97fa489026e7d6d757a63fd11c6624a34d06a3633b4 -->
<g id="node5" class="node">
<title>_75f66095baa60592fcc7e97fa489026e7d6d757a63fd11c6624a34d06a3633b4</title>
<polygon fill="none" stroke="black" points="352.5,-140.5 261.5,-140.5 261.5,-104.5 352.5,-104.5 352.5,-140.5"/>
<text xml:space="preserve" text-anchor="middle" x="307" y="-117.45" font-family="Times,serif" font-size="14.00">owl:Ontology</text>
</g>
<!-- _44a157d5fabe5bbf54dd1f384ccfb8f02ceba69069cdc8888499da1b7930714f -->
<g id="node6" class="node">
<title>_44a157d5fabe5bbf54dd1f384ccfb8f02ceba69069cdc8888499da1b7930714f</title>
<polygon fill="none" stroke="#9b9b9b" points="389.25,-52 254.75,-52 254.75,-16 389.25,-16 389.25,-52"/>
<text xml:space="preserve" text-anchor="middle" x="322" y="-28.95" font-family="Times,serif" font-size="14.00">owl:versionIRI object</text>
</g>
<!-- _75f66095baa60592fcc7e97fa489026e7d6d757a63fd11c6624a34d06a3633b4&#45;&gt;_44a157d5fabe5bbf54dd1f384ccfb8f02ceba69069cdc8888499da1b7930714f -->
<g id="edge3" class="edge">
<title>_75f66095baa60592fcc7e97fa489026e7d6d757a63fd11c6624a34d06a3633b4&#45;&gt;_44a157d5fabe5bbf54dd1f384ccfb8f02ceba69069cdc8888499da1b7930714f</title>
<path fill="none" stroke="gray" d="M309.96,-104.41C311.98,-92.76 314.71,-77.05 317.05,-63.52"/>
<polygon fill="gray" stroke="gray" points="320.47,-64.29 318.73,-53.84 313.58,-63.1 320.47,-64.29"/>
<text xml:space="preserve" text-anchor="middle" x="356.72" y="-73.2" font-family="Times,serif" font-size="14.00">owl:versionIRI</text>
</g>
<!-- _dc7a6d281f729cbeaa414a9670addb56912f2be036498ebf27c9d1ae3c2d462e -->
<g id="node7" class="node">
<title>_dc7a6d281f729cbeaa414a9670addb56912f2be036498ebf27c9d1ae3c2d462e</title>
<polygon fill="none" stroke="#9b9b9b" points="889.5,-52 660.5,-52 660.5,-16 889.5,-16 889.5,-52"/>
<text xml:space="preserve" text-anchor="middle" x="775" y="-28.95" font-family="Times,serif" font-size="14.00">IRI &#45; http://www.w3.org/ns/dx/prof/1.0</text>
</g>
<!-- _c7f3d2538524bd8575cde368ba1de43430b3acf816e7c430a3ab938efef654ad -->
<g id="node8" class="node">
<title>_c7f3d2538524bd8575cde368ba1de43430b3acf816e7c430a3ab938efef654ad</title>
<polygon fill="none" stroke="black" points="653.25,-140.5 404.75,-140.5 404.75,-104.5 653.25,-104.5 653.25,-140.5"/>
<text xml:space="preserve" text-anchor="middle" x="529" y="-117.45" font-family="Times,serif" font-size="14.00">IRI &#45; http://example.org/ontology/cdo&#45;prof</text>
</g>
<!-- _c7f3d2538524bd8575cde368ba1de43430b3acf816e7c430a3ab938efef654ad&#45;&gt;_dc7a6d281f729cbeaa414a9670addb56912f2be036498ebf27c9d1ae3c2d462e -->
<g id="edge5" class="edge">
<title>_c7f3d2538524bd8575cde368ba1de43430b3acf816e7c430a3ab938efef654ad&#45;&gt;_dc7a6d281f729cbeaa414a9670addb56912f2be036498ebf27c9d1ae3c2d462e</title>
<path fill="none" stroke="black" d="M591.82,-104.06C609.75,-98.76 629.24,-92.69 647,-86.5 672.69,-77.54 700.79,-66.39 724.1,-56.76"/>
<polygon fill="none" stroke="black" points="725.16,-60.11 733.05,-53.04 722.47,-53.65 725.16,-60.11"/>
<text xml:space="preserve" text-anchor="middle" x="722.66" y="-73.2" font-family="Times,serif" font-size="14.00">owl:imports</text>
</g>
<!-- _7e7fcdca06e527648f2f5f757451b77691e8c0694969f0d9bb23885f136d5618 -->
<g id="node10" class="node">
<title>_7e7fcdca06e527648f2f5f757451b77691e8c0694969f0d9bb23885f136d5618</title>
<polygon fill="none" stroke="black" points="642.5,-52 413.5,-52 413.5,-16 642.5,-16 642.5,-52"/>
<text xml:space="preserve" text-anchor="middle" x="528" y="-28.95" font-family="Times,serif" font-size="14.00">IRI &#45; http://example.org/shapes/sh&#45;prof</text>
</g>
<!-- _c7f3d2538524bd8575cde368ba1de43430b3acf816e7c430a3ab938efef654ad&#45;&gt;_7e7fcdca06e527648f2f5f757451b77691e8c0694969f0d9bb23885f136d5618 -->
<g id="edge4" class="edge">
<title>_c7f3d2538524bd8575cde368ba1de43430b3acf816e7c430a3ab938efef654ad&#45;&gt;_7e7fcdca06e527648f2f5f757451b77691e8c0694969f0d9bb23885f136d5618</title>
<path fill="none" stroke="black" d="M528.8,-104.41C528.67,-92.76 528.49,-77.05 528.33,-63.52"/>
<polygon fill="black" stroke="black" points="531.83,-63.82 528.22,-53.86 524.83,-63.9 531.83,-63.82"/>
<text xml:space="preserve" text-anchor="middle" x="585.59" y="-73.2" font-family="Times,serif" font-size="14.00">dcterms:conformsTo</text>
</g>
<!-- _104e7bcaa55bc08d018828107e55543f900143a3e9d6427d84e0e78a7797f13d -->
<g id="node9" class="node">
<title>_104e7bcaa55bc08d018828107e55543f900143a3e9d6427d84e0e78a7797f13d</title>
<polygon fill="none" stroke="black" points="879,-140.5 671,-140.5 671,-104.5 879,-104.5 879,-140.5"/>
<text xml:space="preserve" text-anchor="middle" x="775" y="-117.45" font-family="Times,serif" font-size="14.00">IRI &#45; http://www.w3.org/ns/dx/prof</text>
</g>
<!-- _104e7bcaa55bc08d018828107e55543f900143a3e9d6427d84e0e78a7797f13d&#45;&gt;_dc7a6d281f729cbeaa414a9670addb56912f2be036498ebf27c9d1ae3c2d462e -->
<g id="edge6" class="edge">
<title>_104e7bcaa55bc08d018828107e55543f900143a3e9d6427d84e0e78a7797f13d&#45;&gt;_dc7a6d281f729cbeaa414a9670addb56912f2be036498ebf27c9d1ae3c2d462e</title>
<path fill="none" stroke="gray" d="M775,-104.41C775,-92.76 775,-77.05 775,-63.52"/>
<polygon fill="gray" stroke="gray" points="778.5,-63.86 775,-53.86 771.5,-63.86 778.5,-63.86"/>
<text xml:space="preserve" text-anchor="middle" x="815.88" y="-73.2" font-family="Times,serif" font-size="14.00">owl:versionIRI</text>
</g>
</g>
</svg>
