<?xml version="1.0" encoding="UTF-8" standalone="no"?>
<!DOCTYPE svg PUBLIC "-//W3C//DTD SVG 1.1//EN"
 "http://www.w3.org/Graphics/SVG/1.1/DTD/svg11.dtd">
<!-- Generated by graphviz version 14.1.5 (20260411.2331)
 -->
<!-- Title: G Pages: 1 -->
<svg width="597pt" height="206pt"
 viewBox="0.00 0.00 597.00 206.00" xmlns="http://www.w3.org/2000/svg" xmlns:xlink="http://www.w3.org/1999/xlink">
<g id="graph0" class="graph" transform="scale(1 1) rotate(0) translate(4 201.5)">
<title>G</title>
<polygon fill="white" stroke="none" points="-4,4 -4,-201.5 592.5,-201.5 592.5,4 -4,4"/>
<g id="clust1" class="cluster">
<title>cluster_legend</title>
<polygon fill="none" stroke="black" points="8,-8 8,-189.5 351,-189.5 351,-8 8,-8"/>
<text xml:space="preserve" text-anchor="middle" x="179.5" y="-172.2" font-family="Times,serif" font-size="14.00">Legend</text>
<text xml:space="preserve" text-anchor="middle" x="179.5" y="-155.7" font-family="Times,serif" font-size="14.00">Note: edges in legend only show most general applicability.</text>
</g>
<!-- _75f66095baa60592fcc7e97fa489026e7d6d757a63fd11c6624a34d06a3633b4 -->
<g id="node1" class="node">
<title>_75f66095baa60592fcc7e97fa489026e7d6d757a63fd11c6624a34d06a3633b4</title>
<polygon fill="none" stroke="black" points="217.5,-140.5 126.5,-140.5 126.5,-104.5 217.5,-104.5 217.5,-140.5"/>
<text xml:space="preserve" text-anchor="middle" x="172" y="-117.45" font-family="Times,serif" font-size="14.00">owl:Ontology</text>
</g>
<!-- _44a157d5fabe5bbf54dd1f384ccfb8f02ceba69069cdc8888499da1b7930714f -->
<g id="node2" class="node">
<title>_44a157d5fabe5bbf54dd1f384ccfb8f02ceba69069cdc8888499da1b7930714f</title>
<polygon fill="none" stroke="#9b9b9b" points="239.25,-52 104.75,-52 104.75,-16 239.25,-16 239.25,-52"/>
<text xml:space="preserve" text-anchor="middle" x="172" y="-28.95" font-family="Times,serif" font-size="14.00">owl:versionIRI object</text>
</g>
<!-- _75f66095baa60592fcc7e97fa489026e7d6d757a63fd11c6624a34d06a3633b4&#45;&gt;_44a157d5fabe5bbf54dd1f384ccfb8f02ceba69069cdc8888499da1b7930714f -->
<g id="edge1" class="edge">
<title>_75f66095baa60592fcc7e97fa489026e7d6d757a63fd11c6624a34d06a3633b4&#45;&gt;_44a157d5fabe5bbf54dd1f384ccfb8f02ceba69069cdc8888499da1b7930714f</title>
<path fill="none" stroke="gray" d="M172,-104.41C172,-92.76 172,-77.05 172,-63.52"/>
<polygon fill="gray" stroke="gray" points="175.5,-63.86 172,-53.86 168.5,-63.86 175.5,-63.86"/>
<text xml:space="preserve" text-anchor="middle" x="212.88" y="-73.2" font-family="Times,serif" font-size="14.00">owl:versionIRI</text>
</g>
<!-- _dc7a6d281f729cbeaa414a9670addb56912f2be036498ebf27c9d1ae3c2d462e -->
<g id="node3" class="node">
<title>_dc7a6d281f729cbeaa414a9670addb56912f2be036498ebf27c9d1ae3c2d462e</title>
<polygon fill="none" stroke="#9b9b9b" points="588.5,-52 359.5,-52 359.5,-16 588.5,-16 588.5,-52"/>
<text xml:space="preserve" text-anchor="middle" x="474" y="-28.95" font-family="Times,serif" font-size="14.00">IRI &#45; http://www.w3.org/ns/dx/prof/1.0</text>
</g>
<!-- _104e7bcaa55bc08d018828107e55543f900143a3e9d6427d84e0e78a7797f13d -->
<g id="node4" class="node">
<title>_104e7bcaa55bc08d018828107e55543f900143a3e9d6427d84e0e78a7797f13d</title>
<polygon fill="none" stroke="black" points="578,-140.5 370,-140.5 370,-104.5 578,-104.5 578,-140.5"/>
<text xml:space="preserve" text-anchor="middle" x="474" y="-117.45" font-family="Times,serif" font-size="14.00">IRI &#45; http://www.w3.org/ns/dx/prof</text>
</g>
<!-- _104e7bcaa55bc08d018828107e55543f900143a3e9d6427d84e0e78a7797f13d&#45;&gt;_dc7a6d281f729cbeaa414a9670addb56912f2be036498ebf27c9d1ae3c2d462e -->
<g id="edge2" class="edge">
<title>_104e7bcaa55bc08d018828107e55543f900143a3e9d6427d84e0e78a7797f13d&#45;&gt;_dc7a6d281f729cbeaa414a9670addb56912f2be036498ebf27c9d1ae3c2d462e</title>
<path fill="none" stroke="gray" d="M474,-104.41C474,-92.76 474,-77.05 474,-63.52"/>
<polygon fill="gray" stroke="gray" points="477.5,-63.86 474,-53.86 470.5,-63.86 477.5,-63.86"/>
<text xml:space="preserve" text-anchor="middle" x="514.88" y="-73.2" font-family="Times,serif" font-size="14.00">owl:versionIRI</text>
</g>
</g>
</svg>
