<?xml version="1.0" encoding="UTF-8" standalone="no"?>
<!DOCTYPE svg PUBLIC "-//W3C//DTD SVG 1.1//EN"
 "http://www.w3.org/Graphics/SVG/1.1/DTD/svg11.dtd">
<!-- Generated by graphviz version 14.1.5 (20260411.2331)
 -->
<!-- Title: G Pages: 1 -->
<svg width="915pt" height="206pt"
 viewBox="0.00 0.00 915.00 206.00" xmlns="http://www.w3.org/2000/svg" xmlns:xlink="http://www.w3.org/1999/xlink">
<g id="graph0" class="graph" transform="scale(1 1) rotate(0) translate(4 201.5)">
<title>G</title>
<polygon fill="white" stroke="none" points="-4,4 -4,-201.5 910.5,-201.5 910.5,4 -4,4"/>
<g id="clust1" class="cluster">
<title>cluster_legend</title>
<polygon fill="none" stroke="black" points="8,-8 8,-189.5 412,-189.5 412,-8 8,-8"/>
<text xml:space="preserve" text-anchor="middle" x="210" y="-172.2" font-family="Times,serif" font-size="14.00">Legend</text>
<text xml:space="preserve" text-anchor="middle" x="210" y="-155.7" font-family="Times,serif" font-size="14.00">Note: edges in legend only show most general applicability.</text>
</g>
<!-- _6be42d3db9cf20b926086b834a126e2c64aa8afeb6017f801e12d8e940b021d5 -->
<g id="node1" class="node">
<title>_6be42d3db9cf20b926086b834a126e2c64aa8afeb6017f801e12d8e940b021d5</title>
<polygon fill="none" stroke="black" points="88.12,-140.5 15.88,-140.5 15.88,-104.5 88.12,-104.5 88.12,-140.5"/>
<text xml:space="preserve" text-anchor="middle" x="52" y="-117.45" font-family="Times,serif" font-size="14.00">owl:Thing</text>
</g>
<!-- _cfbd84720b96d207f7d3ef32e86ab2451472ca207077c2bdb8581e452d8a663c -->
<g id="node2" class="node">
<title>_cfbd84720b96d207f7d3ef32e86ab2451472ca207077c2bdb8581e452d8a663c</title>
<polygon fill="none" stroke="black" points="121.62,-52 16.38,-52 16.38,-16 127.62,-16 127.62,-46 121.62,-52"/>
<polyline fill="none" stroke="black" points="121.62,-52 121.62,-46"/>
<polyline fill="none" stroke="black" points="127.62,-46 121.62,-46"/>
<text xml:space="preserve" text-anchor="middle" x="72" y="-28.95" font-family="Times,serif" font-size="14.00">dcterms:Standard</text>
</g>
<!-- _6be42d3db9cf20b926086b834a126e2c64aa8afeb6017f801e12d8e940b021d5&#45;&gt;_cfbd84720b96d207f7d3ef32e86ab2451472ca207077c2bdb8581e452d8a663c -->
<g id="edge1" class="edge">
<title>_6be42d3db9cf20b926086b834a126e2c64aa8afeb6017f801e12d8e940b021d5&#45;&gt;_cfbd84720b96d207f7d3ef32e86ab2451472ca207077c2bdb8581e452d8a663c</title>
<path fill="none" stroke="black" d="M50.82,-104.06C50.59,-93.95 51.09,-81.08 54,-70 54.65,-67.53 55.49,-65.04 56.46,-62.58"/>
<polygon fill="black" stroke="black" points="59.6,-64.12 60.63,-53.58 53.25,-61.17 59.6,-64.12"/>
<text xml:space="preserve" text-anchor="middle" x="111" y="-73.2" font-family="Times,serif" font-size="14.00">dcterms:conformsTo</text>
</g>
<!-- _dff2c21a2c6c4241453ba27c8017f28b476e1c237fe5224d565322ea299e6044 -->
<g id="node3" class="node">
<title>_dff2c21a2c6c4241453ba27c8017f28b476e1c237fe5224d565322ea299e6044</title>
<polygon fill="none" stroke="black" points="197.5,-140.5 106.5,-140.5 106.5,-104.5 197.5,-104.5 197.5,-140.5"/>
<text xml:space="preserve" text-anchor="middle" x="152" y="-117.45" font-family="Times,serif" font-size="14.00">owl:Ontology</text>
</g>
<!-- _017b8d0cbb5ff892223344da777a622e10a1fcc984f4a2c596609f45595f8a0f -->
<g id="node4" class="node">
<title>_017b8d0cbb5ff892223344da777a622e10a1fcc984f4a2c596609f45595f8a0f</title>
<polygon fill="none" stroke="black" points="236.5,-52 145.5,-52 145.5,-16 236.5,-16 236.5,-52"/>
<text xml:space="preserve" text-anchor="middle" x="191" y="-28.95" font-family="Times,serif" font-size="14.00">owl:Ontology</text>
</g>
<!-- _dff2c21a2c6c4241453ba27c8017f28b476e1c237fe5224d565322ea299e6044&#45;&gt;_017b8d0cbb5ff892223344da777a622e10a1fcc984f4a2c596609f45595f8a0f -->
<g id="edge2" class="edge">
<title>_dff2c21a2c6c4241453ba27c8017f28b476e1c237fe5224d565322ea299e6044&#45;&gt;_017b8d0cbb5ff892223344da777a622e10a1fcc984f4a2c596609f45595f8a0f</title>
<path fill="none" stroke="black" d="M160.01,-104.07C162.57,-98.46 165.41,-92.22 168,-86.5 171.51,-78.74 175.29,-70.3 178.75,-62.55"/>
<polygon fill="none" stroke="black" points="181.88,-64.12 182.75,-53.57 175.49,-61.27 181.88,-64.12"/>
<text xml:space="preserve" text-anchor="middle" x="207.99" y="-73.2" font-family="Times,serif" font-size="14.00">owl:imports</text>
</g>
<!-- _75f66095baa60592fcc7e97fa489026e7d6d757a63fd11c6624a34d06a3633b4 -->
<g id="node5" class="node">
<title>_75f66095baa60592fcc7e97fa489026e7d6d757a63fd11c6624a34d06a3633b4</title>
<polygon fill="none" stroke="black" points="306.5,-140.5 215.5,-140.5 215.5,-104.5 306.5,-104.5 306.5,-140.5"/>
<text xml:space="preserve" text-anchor="middle" x="261" y="-117.45" font-family="Times,serif" font-size="14.00">owl:Ontology</text>
</g>
<!-- _44a157d5fabe5bbf54dd1f384ccfb8f02ceba69069cdc8888499da1b7930714f -->
<g id="node6" class="node">
<title>_44a157d5fabe5bbf54dd1f384ccfb8f02ceba69069cdc8888499da1b7930714f</title>
<polygon fill="none" stroke="#9b9b9b" points="389.25,-52 254.75,-52 254.75,-16 389.25,-16 389.25,-52"/>
<text xml:space="preserve" text-anchor="middle" x="322" y="-28.95" font-family="Times,serif" font-size="14.00">owl:versionIRI object</text>
</g>
<!-- _75f66095baa60592fcc7e97fa489026e7d6d757a63fd11c6624a34d06a3633b4&#45;&gt;_44a157d5fabe5bbf54dd1f384ccfb8f02ceba69069cdc8888499da1b7930714f -->
<g id="edge3" class="edge">
<title>_75f66095baa60592fcc7e97fa489026e7d6d757a63fd11c6624a34d06a3633b4&#45;&gt;_44a157d5fabe5bbf54dd1f384ccfb8f02ceba69069cdc8888499da1b7930714f</title>
<path fill="none" stroke="gray" d="M273.05,-104.41C281.68,-92.17 293.48,-75.45 303.32,-61.49"/>
<polygon fill="gray" stroke="gray" points="305.99,-63.78 308.89,-53.59 300.27,-59.74 305.99,-63.78"/>
<text xml:space="preserve" text-anchor="middle" x="337.84" y="-73.2" font-family="Times,serif" font-size="14.00">owl:versionIRI</text>
</g>
<!-- _3996bb2edc1e048a0f85bf613e99985e4a089bd6567ed7846195d45f64b8658a -->
<g id="node7" class="node">
<title>_3996bb2edc1e048a0f85bf613e99985e4a089bd6567ed7846195d45f64b8658a</title>
<polygon fill="#9b9b9b" stroke="black" points="403.5,-140.5 324.5,-140.5 324.5,-104.5 403.5,-104.5 403.5,-140.5"/>
<text xml:space="preserve" text-anchor="middle" x="364" y="-117.45" font-family="Times,serif" font-size="14.00">prof:Profile</text>
</g>
<!-- _dc7a6d281f729cbeaa414a9670addb56912f2be036498ebf27c9d1ae3c2d462e -->
<g id="node8" class="node">
<title>_dc7a6d281f729cbeaa414a9670addb56912f2be036498ebf27c9d1ae3c2d462e</title>
<polygon fill="none" stroke="#9b9b9b" points="906.5,-52 677.5,-52 677.5,-16 906.5,-16 906.5,-52"/>
<text xml:space="preserve" text-anchor="middle" x="792" y="-28.95" font-family="Times,serif" font-size="14.00">IRI &#45; http://www.w3.org/ns/dx/prof/1.0</text>
</g>
<!-- _7e7fcdca06e527648f2f5f757451b77691e8c0694969f0d9bb23885f136d5618 -->
<g id="node9" class="node">
<title>_7e7fcdca06e527648f2f5f757451b77691e8c0694969f0d9bb23885f136d5618</title>
<polygon fill="#9b9b9b" stroke="black" points="659.5,-52 430.5,-52 430.5,-16 659.5,-16 659.5,-52"/>
<text xml:space="preserve" text-anchor="middle" x="545" y="-28.95" font-family="Times,serif" font-size="14.00">IRI &#45; http://example.org/shapes/sh&#45;prof</text>
</g>
<!-- _c7f3d2538524bd8575cde368ba1de43430b3acf816e7c430a3ab938efef654ad -->
<g id="node10" class="node">
<title>_c7f3d2538524bd8575cde368ba1de43430b3acf816e7c430a3ab938efef654ad</title>
<polygon fill="none" stroke="black" points="670.25,-140.5 421.75,-140.5 421.75,-104.5 670.25,-104.5 670.25,-140.5"/>
<text xml:space="preserve" text-anchor="middle" x="546" y="-117.45" font-family="Times,serif" font-size="14.00">IRI &#45; http://example.org/ontology/cdo&#45;prof</text>
</g>
<!-- _c7f3d2538524bd8575cde368ba1de43430b3acf816e7c430a3ab938efef654ad&#45;&gt;_dc7a6d281f729cbeaa414a9670addb56912f2be036498ebf27c9d1ae3c2d462e -->
<g id="edge5" class="edge">
<title>_c7f3d2538524bd8575cde368ba1de43430b3acf816e7c430a3ab938efef654ad&#45;&gt;_dc7a6d281f729cbeaa414a9670addb56912f2be036498ebf27c9d1ae3c2d462e</title>
<path fill="none" stroke="black" d="M608.82,-104.06C626.75,-98.76 646.24,-92.69 664,-86.5 689.69,-77.54 717.79,-66.39 741.1,-56.76"/>
<polygon fill="none" stroke="black" points="742.16,-60.11 750.05,-53.04 739.47,-53.65 742.16,-60.11"/>
<text xml:space="preserve" text-anchor="middle" x="739.66" y="-73.2" font-family="Times,serif" font-size="14.00">owl:imports</text>
</g>
<!-- _c7f3d2538524bd8575cde368ba1de43430b3acf816e7c430a3ab938efef654ad&#45;&gt;_7e7fcdca06e527648f2f5f757451b77691e8c0694969f0d9bb23885f136d5618 -->
<g id="edge4" class="edge">
<title>_c7f3d2538524bd8575cde368ba1de43430b3acf816e7c430a3ab938efef654ad&#45;&gt;_7e7fcdca06e527648f2f5f757451b77691e8c0694969f0d9bb23885f136d5618</title>
<path fill="none" stroke="black" d="M545.8,-104.41C545.67,-92.76 545.49,-77.05 545.33,-63.52"/>
<polygon fill="black" stroke="black" points="548.83,-63.82 545.22,-53.86 541.83,-63.9 548.83,-63.82"/>
<text xml:space="preserve" text-anchor="middle" x="602.59" y="-73.2" font-family="Times,serif" font-size="14.00">dcterms:conformsTo</text>
</g>
<!-- _104e7bcaa55bc08d018828107e55543f900143a3e9d6427d84e0e78a7797f13d -->
<g id="node11" class="node">
<title>_104e7bcaa55bc08d018828107e55543f900143a3e9d6427d84e0e78a7797f13d</title>
<polygon fill="none" stroke="black" points="896,-140.5 688,-140.5 688,-104.5 896,-104.5 896,-140.5"/>
<text xml:space="preserve" text-anchor="middle" x="792" y="-117.45" font-family="Times,serif" font-size="14.00">IRI &#45; http://www.w3.org/ns/dx/prof</text>
</g>
<!-- _104e7bcaa55bc08d018828107e55543f900143a3e9d6427d84e0e78a7797f13d&#45;&gt;_dc7a6d281f729cbeaa414a9670addb56912f2be036498ebf27c9d1ae3c2d462e -->
<g id="edge6" class="edge">
<title>_104e7bcaa55bc08d018828107e55543f900143a3e9d6427d84e0e78a7797f13d&#45;&gt;_dc7a6d281f729cbeaa414a9670addb56912f2be036498ebf27c9d1ae3c2d462e</title>
<path fill="none" stroke="gray" d="M792,-104.41C792,-92.76 792,-77.05 792,-63.52"/>
<polygon fill="gray" stroke="gray" points="795.5,-63.86 792,-53.86 788.5,-63.86 795.5,-63.86"/>
<text xml:space="preserve" text-anchor="middle" x="832.88" y="-73.2" font-family="Times,serif" font-size="14.00">owl:versionIRI</text>
</g>
</g>
</svg>
