<?xml version="1.0" encoding="UTF-8" standalone="no"?>
<!DOCTYPE svg PUBLIC "-//W3C//DTD SVG 1.1//EN"
 "http://www.w3.org/Graphics/SVG/1.1/DTD/svg11.dtd">
<!-- Generated by graphviz version 14.1.5 (20260411.2331)
 -->
<!-- Title: G Pages: 1 -->
<svg width="3984pt" height="278pt"
 viewBox="0.00 0.00 3984.00 278.00" xmlns="http://www.w3.org/2000/svg" xmlns:xlink="http://www.w3.org/1999/xlink">
<g id="graph0" class="graph" transform="scale(1 1) rotate(0) translate(4 274)">
<title>G</title>
<polygon fill="white" stroke="none" points="-4,4 -4,-274 3979.62,-274 3979.62,4 -4,4"/>
<g id="clust1" class="cluster">
<title>cluster_legend</title>
<polygon fill="none" stroke="black" points="8,-80.5 8,-262 833,-262 833,-80.5 8,-80.5"/>
<text xml:space="preserve" text-anchor="middle" x="420.5" y="-244.7" font-family="Times,serif" font-size="14.00">Legend</text>
<text xml:space="preserve" text-anchor="middle" x="420.5" y="-228.2" font-family="Times,serif" font-size="14.00">Note: edges in legend only show most general applicability.</text>
</g>
<!-- _6be42d3db9cf20b926086b834a126e2c64aa8afeb6017f801e12d8e940b021d5 -->
<g id="node1" class="node">
<title>_6be42d3db9cf20b926086b834a126e2c64aa8afeb6017f801e12d8e940b021d5</title>
<polygon fill="none" stroke="black" points="100.12,-213 27.88,-213 27.88,-177 100.12,-177 100.12,-213"/>
<text xml:space="preserve" text-anchor="middle" x="64" y="-189.95" font-family="Times,serif" font-size="14.00">owl:Thing</text>
</g>
<!-- _cfbd84720b96d207f7d3ef32e86ab2451472ca207077c2bdb8581e452d8a663c -->
<g id="node2" class="node">
<title>_cfbd84720b96d207f7d3ef32e86ab2451472ca207077c2bdb8581e452d8a663c</title>
<polygon fill="none" stroke="black" points="121.62,-124.5 16.38,-124.5 16.38,-88.5 127.62,-88.5 127.62,-118.5 121.62,-124.5"/>
<polyline fill="none" stroke="black" points="121.62,-124.5 121.62,-118.5"/>
<polyline fill="none" stroke="black" points="127.62,-118.5 121.62,-118.5"/>
<text xml:space="preserve" text-anchor="middle" x="72" y="-101.45" font-family="Times,serif" font-size="14.00">dcterms:Standard</text>
</g>
<!-- _6be42d3db9cf20b926086b834a126e2c64aa8afeb6017f801e12d8e940b021d5&#45;&gt;_cfbd84720b96d207f7d3ef32e86ab2451472ca207077c2bdb8581e452d8a663c -->
<g id="edge1" class="edge">
<title>_6be42d3db9cf20b926086b834a126e2c64aa8afeb6017f801e12d8e940b021d5&#45;&gt;_cfbd84720b96d207f7d3ef32e86ab2451472ca207077c2bdb8581e452d8a663c</title>
<path fill="none" stroke="black" d="M63.57,-176.78C63.51,-166.75 63.76,-153.88 65,-142.5 65.23,-140.42 65.52,-138.28 65.85,-136.13"/>
<polygon fill="black" stroke="black" points="69.28,-136.81 67.62,-126.34 62.39,-135.55 69.28,-136.81"/>
<text xml:space="preserve" text-anchor="middle" x="122" y="-145.7" font-family="Times,serif" font-size="14.00">dcterms:conformsTo</text>
</g>
<!-- _d3ebcfee627862e24b4c02f95b40a1d414501a35de08d9433b9bc313593f226b -->
<g id="node3" class="node">
<title>_d3ebcfee627862e24b4c02f95b40a1d414501a35de08d9433b9bc313593f226b</title>
<polygon fill="none" stroke="black" points="246.5,-213 155.5,-213 155.5,-177 246.5,-177 246.5,-213"/>
<text xml:space="preserve" text-anchor="middle" x="201" y="-189.95" font-family="Times,serif" font-size="14.00">owl:Ontology</text>
</g>
<!-- _36453afe86e7e9240886243514581cd9093de1f7ebca250869cf581f3578a963 -->
<g id="node4" class="node">
<title>_36453afe86e7e9240886243514581cd9093de1f7ebca250869cf581f3578a963</title>
<polygon fill="none" stroke="#9b9b9b" points="280.25,-124.5 145.75,-124.5 145.75,-88.5 280.25,-88.5 280.25,-124.5"/>
<text xml:space="preserve" text-anchor="middle" x="213" y="-101.45" font-family="Times,serif" font-size="14.00">owl:versionIRI object</text>
</g>
<!-- _d3ebcfee627862e24b4c02f95b40a1d414501a35de08d9433b9bc313593f226b&#45;&gt;_36453afe86e7e9240886243514581cd9093de1f7ebca250869cf581f3578a963 -->
<g id="edge2" class="edge">
<title>_d3ebcfee627862e24b4c02f95b40a1d414501a35de08d9433b9bc313593f226b&#45;&gt;_36453afe86e7e9240886243514581cd9093de1f7ebca250869cf581f3578a963</title>
<path fill="none" stroke="gray" stroke-dasharray="5,2" d="M199.98,-176.72C199.71,-166.67 199.9,-153.79 201.75,-142.5 202.11,-140.28 202.59,-138.01 203.14,-135.74"/>
<polygon fill="gray" stroke="gray" points="206.5,-136.73 205.93,-126.15 199.78,-134.78 206.5,-136.73"/>
<text xml:space="preserve" text-anchor="middle" x="285.38" y="-145.7" font-family="Times,serif" font-size="14.00">owl:backwardCompatibleWith</text>
</g>
<!-- _dff2c21a2c6c4241453ba27c8017f28b476e1c237fe5224d565322ea299e6044 -->
<g id="node5" class="node">
<title>_dff2c21a2c6c4241453ba27c8017f28b476e1c237fe5224d565322ea299e6044</title>
<polygon fill="none" stroke="black" points="427.5,-213 336.5,-213 336.5,-177 427.5,-177 427.5,-213"/>
<text xml:space="preserve" text-anchor="middle" x="382" y="-189.95" font-family="Times,serif" font-size="14.00">owl:Ontology</text>
</g>
<!-- _017b8d0cbb5ff892223344da777a622e10a1fcc984f4a2c596609f45595f8a0f -->
<g id="node6" class="node">
<title>_017b8d0cbb5ff892223344da777a622e10a1fcc984f4a2c596609f45595f8a0f</title>
<polygon fill="none" stroke="black" points="389.5,-124.5 298.5,-124.5 298.5,-88.5 389.5,-88.5 389.5,-124.5"/>
<text xml:space="preserve" text-anchor="middle" x="344" y="-101.45" font-family="Times,serif" font-size="14.00">owl:Ontology</text>
</g>
<!-- _dff2c21a2c6c4241453ba27c8017f28b476e1c237fe5224d565322ea299e6044&#45;&gt;_017b8d0cbb5ff892223344da777a622e10a1fcc984f4a2c596609f45595f8a0f -->
<g id="edge3" class="edge">
<title>_dff2c21a2c6c4241453ba27c8017f28b476e1c237fe5224d565322ea299e6044&#45;&gt;_017b8d0cbb5ff892223344da777a622e10a1fcc984f4a2c596609f45595f8a0f</title>
<path fill="none" stroke="black" d="M379.31,-176.76C377.31,-166.49 374.04,-153.38 369,-142.5 367.72,-139.74 366.21,-136.97 364.59,-134.26"/>
<polygon fill="none" stroke="black" points="367.63,-132.52 359.18,-126.13 361.8,-136.4 367.63,-132.52"/>
<text xml:space="preserve" text-anchor="middle" x="408.01" y="-145.7" font-family="Times,serif" font-size="14.00">owl:imports</text>
</g>
<!-- _40c452addb86544e9b40de1944b297b1161f8f5ce8439cbe319e678707c846f2 -->
<g id="node7" class="node">
<title>_40c452addb86544e9b40de1944b297b1161f8f5ce8439cbe319e678707c846f2</title>
<polygon fill="none" stroke="black" points="536.5,-213 445.5,-213 445.5,-177 536.5,-177 536.5,-213"/>
<text xml:space="preserve" text-anchor="middle" x="491" y="-189.95" font-family="Times,serif" font-size="14.00">owl:Ontology</text>
</g>
<!-- _f2485448b322a450afac39060561a1ba5651db175a9ecdd4c6d9fd819e7ce02a -->
<g id="node8" class="node">
<title>_f2485448b322a450afac39060561a1ba5651db175a9ecdd4c6d9fd819e7ce02a</title>
<polygon fill="none" stroke="#9b9b9b" points="542.25,-124.5 407.75,-124.5 407.75,-88.5 542.25,-88.5 542.25,-124.5"/>
<text xml:space="preserve" text-anchor="middle" x="475" y="-101.45" font-family="Times,serif" font-size="14.00">owl:versionIRI object</text>
</g>
<!-- _40c452addb86544e9b40de1944b297b1161f8f5ce8439cbe319e678707c846f2&#45;&gt;_f2485448b322a450afac39060561a1ba5651db175a9ecdd4c6d9fd819e7ce02a -->
<g id="edge4" class="edge">
<title>_40c452addb86544e9b40de1944b297b1161f8f5ce8439cbe319e678707c846f2&#45;&gt;_f2485448b322a450afac39060561a1ba5651db175a9ecdd4c6d9fd819e7ce02a</title>
<path fill="none" stroke="gray" stroke-dasharray="5,2" d="M487.84,-176.91C485.68,-165.26 482.78,-149.55 480.28,-136.02"/>
<polygon fill="gray" stroke="gray" points="483.75,-135.54 478.48,-126.34 476.86,-136.81 483.75,-135.54"/>
<text xml:space="preserve" text-anchor="middle" x="530.18" y="-145.7" font-family="Times,serif" font-size="14.00">owl:priorVersion</text>
</g>
<!-- _75f66095baa60592fcc7e97fa489026e7d6d757a63fd11c6624a34d06a3633b4 -->
<g id="node9" class="node">
<title>_75f66095baa60592fcc7e97fa489026e7d6d757a63fd11c6624a34d06a3633b4</title>
<polygon fill="none" stroke="black" points="673.5,-213 582.5,-213 582.5,-177 673.5,-177 673.5,-213"/>
<text xml:space="preserve" text-anchor="middle" x="628" y="-189.95" font-family="Times,serif" font-size="14.00">owl:Ontology</text>
</g>
<!-- _44a157d5fabe5bbf54dd1f384ccfb8f02ceba69069cdc8888499da1b7930714f -->
<g id="node10" class="node">
<title>_44a157d5fabe5bbf54dd1f384ccfb8f02ceba69069cdc8888499da1b7930714f</title>
<polygon fill="none" stroke="#9b9b9b" points="695.25,-124.5 560.75,-124.5 560.75,-88.5 695.25,-88.5 695.25,-124.5"/>
<text xml:space="preserve" text-anchor="middle" x="628" y="-101.45" font-family="Times,serif" font-size="14.00">owl:versionIRI object</text>
</g>
<!-- _75f66095baa60592fcc7e97fa489026e7d6d757a63fd11c6624a34d06a3633b4&#45;&gt;_44a157d5fabe5bbf54dd1f384ccfb8f02ceba69069cdc8888499da1b7930714f -->
<g id="edge5" class="edge">
<title>_75f66095baa60592fcc7e97fa489026e7d6d757a63fd11c6624a34d06a3633b4&#45;&gt;_44a157d5fabe5bbf54dd1f384ccfb8f02ceba69069cdc8888499da1b7930714f</title>
<path fill="none" stroke="gray" d="M628,-176.91C628,-165.26 628,-149.55 628,-136.02"/>
<polygon fill="gray" stroke="gray" points="631.5,-136.36 628,-126.36 624.5,-136.36 631.5,-136.36"/>
<text xml:space="preserve" text-anchor="middle" x="668.88" y="-145.7" font-family="Times,serif" font-size="14.00">owl:versionIRI</text>
</g>
<!-- _98e8856b3f61d9865cc05c9747a4bfc52a3d58baaf797c31ee80a7df9b92ed57 -->
<g id="node11" class="node">
<title>_98e8856b3f61d9865cc05c9747a4bfc52a3d58baaf797c31ee80a7df9b92ed57</title>
<polygon fill="#9b9b9b" stroke="black" points="778.5,-213 699.5,-213 699.5,-177 778.5,-177 778.5,-213"/>
<text xml:space="preserve" text-anchor="middle" x="739" y="-189.95" font-family="Times,serif" font-size="14.00">prof:Profile</text>
</g>
<!-- _07166cd5e228fb7ddf859e561327ce51f60071d1183187816b22c1a8ccd0726f -->
<g id="node12" class="node">
<title>_07166cd5e228fb7ddf859e561327ce51f60071d1183187816b22c1a8ccd0726f</title>
<polygon fill="none" stroke="black" points="818.62,-124.5 713.38,-124.5 713.38,-88.5 824.62,-88.5 824.62,-118.5 818.62,-124.5"/>
<polyline fill="none" stroke="black" points="818.62,-124.5 818.62,-118.5"/>
<polyline fill="none" stroke="black" points="824.62,-118.5 818.62,-118.5"/>
<text xml:space="preserve" text-anchor="middle" x="769" y="-101.45" font-family="Times,serif" font-size="14.00">dcterms:Standard</text>
</g>
<!-- _98e8856b3f61d9865cc05c9747a4bfc52a3d58baaf797c31ee80a7df9b92ed57&#45;&gt;_07166cd5e228fb7ddf859e561327ce51f60071d1183187816b22c1a8ccd0726f -->
<g id="edge6" class="edge">
<title>_98e8856b3f61d9865cc05c9747a4bfc52a3d58baaf797c31ee80a7df9b92ed57&#45;&gt;_07166cd5e228fb7ddf859e561327ce51f60071d1183187816b22c1a8ccd0726f</title>
<path fill="none" stroke="black" d="M744.93,-176.91C749.05,-165.02 754.64,-148.91 759.39,-135.2"/>
<polygon fill="black" stroke="black" points="762.58,-126 763.56,-136.92 761.34,-129.57 759.31,-135.45 759.31,-135.45 759.31,-135.45 761.34,-129.57 755.05,-133.97 762.58,-126"/>
<text xml:space="preserve" text-anchor="middle" x="799.81" y="-145.7" font-family="Times,serif" font-size="14.00">prof:isProfileOf</text>
</g>
<!-- _dc7a6d281f729cbeaa414a9670addb56912f2be036498ebf27c9d1ae3c2d462e -->
<g id="node13" class="node">
<title>_dc7a6d281f729cbeaa414a9670addb56912f2be036498ebf27c9d1ae3c2d462e</title>
<polygon fill="none" stroke="#9b9b9b" points="1071.5,-124.5 842.5,-124.5 842.5,-88.5 1071.5,-88.5 1071.5,-124.5"/>
<text xml:space="preserve" text-anchor="middle" x="957" y="-101.45" font-family="Times,serif" font-size="14.00">IRI &#45; http://www.w3.org/ns/dx/prof/1.0</text>
</g>
<!-- _ef411fe8fcaa0f26fd6d42d8672c49f4527427890f7880833a41e98582cea353 -->
<g id="node14" class="node">
<title>_ef411fe8fcaa0f26fd6d42d8672c49f4527427890f7880833a41e98582cea353</title>
<polygon fill="none" stroke="#9b9b9b" points="1429.62,-36 1102.38,-36 1102.38,0 1429.62,0 1429.62,-36"/>
<text xml:space="preserve" text-anchor="middle" x="1266" y="-12.95" font-family="Times,serif" font-size="14.00">IRI &#45; https://ontology.unifiedcyberontology.org/owl/1.4.0</text>
</g>
<!-- _84d7486e89db34fe8e643ac8659722468ca3b98631319d89e7455329c7cb4e6a -->
<g id="node15" class="node">
<title>_84d7486e89db34fe8e643ac8659722468ca3b98631319d89e7455329c7cb4e6a</title>
<polygon fill="#9b9b9b" stroke="black" points="1714.12,-213 1281.88,-213 1281.88,-177 1714.12,-177 1714.12,-213"/>
<text xml:space="preserve" text-anchor="middle" x="1498" y="-189.95" font-family="Times,serif" font-size="14.00">IRI &#45; http://example.org/kb/Profile&#45;58ffd628&#45;b195&#45;4b73&#45;adcf&#45;2ab95c4d100a</text>
</g>
<!-- _32cef3a71b15af6f13f50a02716d24c6a454269da01946e227ca28e9412343f9 -->
<g id="node16" class="node">
<title>_32cef3a71b15af6f13f50a02716d24c6a454269da01946e227ca28e9412343f9</title>
<polygon fill="#9b9b9b" stroke="black" points="2165.88,-213 1732.12,-213 1732.12,-177 2165.88,-177 2165.88,-213"/>
<text xml:space="preserve" text-anchor="middle" x="1949" y="-189.95" font-family="Times,serif" font-size="14.00">IRI &#45; http://example.org/kb/Profile&#45;86ff294b&#45;f010&#45;44ad&#45;83e1&#45;15254946d2e1</text>
</g>
<!-- _3308c6b408c0a01c801472bf558b0c7fa59e91f3e9fdecc869fe3ec94de62ada -->
<g id="node17" class="node">
<title>_3308c6b408c0a01c801472bf558b0c7fa59e91f3e9fdecc869fe3ec94de62ada</title>
<polygon fill="#9b9b9b" stroke="black" points="2616.5,-213 2183.5,-213 2183.5,-177 2616.5,-177 2616.5,-213"/>
<text xml:space="preserve" text-anchor="middle" x="2400" y="-189.95" font-family="Times,serif" font-size="14.00">IRI &#45; http://example.org/kb/Profile&#45;a64f7106&#45;8009&#45;4b4c&#45;b747&#45;735b0fab8a8f</text>
</g>
<!-- _d4120064429d15982da9f5977663ec0ee86d715700ff96efa135c105679ed9c7 -->
<g id="node27" class="node">
<title>_d4120064429d15982da9f5977663ec0ee86d715700ff96efa135c105679ed9c7</title>
<polygon fill="none" stroke="black" points="2620.62,-124.5 2179.38,-124.5 2179.38,-88.5 2620.62,-88.5 2620.62,-124.5"/>
<text xml:space="preserve" text-anchor="middle" x="2400" y="-101.45" font-family="Times,serif" font-size="14.00">IRI &#45; http://example.org/kb/Standard&#45;01f5ae7d&#45;e754&#45;48af&#45;a76f&#45;6b0c6147cbe2</text>
</g>
<!-- _3308c6b408c0a01c801472bf558b0c7fa59e91f3e9fdecc869fe3ec94de62ada&#45;&gt;_d4120064429d15982da9f5977663ec0ee86d715700ff96efa135c105679ed9c7 -->
<g id="edge15" class="edge">
<title>_3308c6b408c0a01c801472bf558b0c7fa59e91f3e9fdecc869fe3ec94de62ada&#45;&gt;_d4120064429d15982da9f5977663ec0ee86d715700ff96efa135c105679ed9c7</title>
<path fill="none" stroke="black" d="M2400,-176.91C2400,-165.26 2400,-149.55 2400,-136.02"/>
<polygon fill="black" stroke="black" points="2400,-126.07 2404.5,-136.07 2400,-129.85 2400,-136.07 2400,-136.07 2400,-136.07 2400,-129.85 2395.5,-136.07 2400,-126.07"/>
<text xml:space="preserve" text-anchor="middle" x="2443.12" y="-145.7" font-family="Times,serif" font-size="14.00">prof:isProfileOf</text>
</g>
<!-- _5351ca9169145b8648691e9bbe3042382c3ef8c32f3e6c689fb753e181eb005c -->
<g id="node18" class="node">
<title>_5351ca9169145b8648691e9bbe3042382c3ef8c32f3e6c689fb753e181eb005c</title>
<polygon fill="#9b9b9b" stroke="black" points="3067.5,-213 2634.5,-213 2634.5,-177 3067.5,-177 3067.5,-213"/>
<text xml:space="preserve" text-anchor="middle" x="2851" y="-189.95" font-family="Times,serif" font-size="14.00">IRI &#45; http://example.org/kb/Profile&#45;b36a4822&#45;8c3f&#45;4c00&#45;af5e&#45;56a5436dcb15</text>
</g>
<!-- _665da6aa24b4172ac714a1b908428b241ba70e9f7af4f75d4cc0efea2de66aaa -->
<g id="node19" class="node">
<title>_665da6aa24b4172ac714a1b908428b241ba70e9f7af4f75d4cc0efea2de66aaa</title>
<polygon fill="#9b9b9b" stroke="black" points="3520.25,-213 3085.75,-213 3085.75,-177 3520.25,-177 3520.25,-213"/>
<text xml:space="preserve" text-anchor="middle" x="3303" y="-189.95" font-family="Times,serif" font-size="14.00">IRI &#45; http://example.org/kb/Profile&#45;c549b51c&#45;6f8b&#45;41bb&#45;b34e&#45;1e2e3e993ac7</text>
</g>
<!-- _104e7bcaa55bc08d018828107e55543f900143a3e9d6427d84e0e78a7797f13d -->
<g id="node20" class="node">
<title>_104e7bcaa55bc08d018828107e55543f900143a3e9d6427d84e0e78a7797f13d</title>
<polygon fill="none" stroke="black" points="1061,-213 853,-213 853,-177 1061,-177 1061,-213"/>
<text xml:space="preserve" text-anchor="middle" x="957" y="-189.95" font-family="Times,serif" font-size="14.00">IRI &#45; http://www.w3.org/ns/dx/prof</text>
</g>
<!-- _104e7bcaa55bc08d018828107e55543f900143a3e9d6427d84e0e78a7797f13d&#45;&gt;_dc7a6d281f729cbeaa414a9670addb56912f2be036498ebf27c9d1ae3c2d462e -->
<g id="edge13" class="edge">
<title>_104e7bcaa55bc08d018828107e55543f900143a3e9d6427d84e0e78a7797f13d&#45;&gt;_dc7a6d281f729cbeaa414a9670addb56912f2be036498ebf27c9d1ae3c2d462e</title>
<path fill="none" stroke="gray" d="M957,-176.91C957,-165.26 957,-149.55 957,-136.02"/>
<polygon fill="gray" stroke="gray" points="960.5,-136.36 957,-126.36 953.5,-136.36 960.5,-136.36"/>
<text xml:space="preserve" text-anchor="middle" x="997.88" y="-145.7" font-family="Times,serif" font-size="14.00">owl:versionIRI</text>
</g>
<!-- _7e7fcdca06e527648f2f5f757451b77691e8c0694969f0d9bb23885f136d5618 -->
<g id="node21" class="node">
<title>_7e7fcdca06e527648f2f5f757451b77691e8c0694969f0d9bb23885f136d5618</title>
<polygon fill="none" stroke="black" points="1318.5,-124.5 1089.5,-124.5 1089.5,-88.5 1318.5,-88.5 1318.5,-124.5"/>
<text xml:space="preserve" text-anchor="middle" x="1204" y="-101.45" font-family="Times,serif" font-size="14.00">IRI &#45; http://example.org/shapes/sh&#45;prof</text>
</g>
<!-- _7e7fcdca06e527648f2f5f757451b77691e8c0694969f0d9bb23885f136d5618&#45;&gt;_ef411fe8fcaa0f26fd6d42d8672c49f4527427890f7880833a41e98582cea353 -->
<g id="edge10" class="edge">
<title>_7e7fcdca06e527648f2f5f757451b77691e8c0694969f0d9bb23885f136d5618&#45;&gt;_ef411fe8fcaa0f26fd6d42d8672c49f4527427890f7880833a41e98582cea353</title>
<path fill="none" stroke="black" d="M1216.25,-88.41C1225.02,-76.17 1237.01,-59.45 1247.02,-45.49"/>
<polygon fill="none" stroke="black" points="1249.7,-47.75 1252.68,-37.58 1244.01,-43.67 1249.7,-47.75"/>
<text xml:space="preserve" text-anchor="middle" x="1273.55" y="-57.2" font-family="Times,serif" font-size="14.00">owl:imports</text>
</g>
<!-- _f2e5b02a171f32dd0a9863c360551d6757f93137b44a6a36e87bb072376e7351 -->
<g id="node22" class="node">
<title>_f2e5b02a171f32dd0a9863c360551d6757f93137b44a6a36e87bb072376e7351</title>
<polygon fill="none" stroke="black" points="1631.88,-124.5 1336.12,-124.5 1336.12,-88.5 1631.88,-88.5 1631.88,-124.5"/>
<text xml:space="preserve" text-anchor="middle" x="1484" y="-101.45" font-family="Times,serif" font-size="14.00">IRI &#45; https://ontology.unifiedcyberontology.org/owl</text>
</g>
<!-- _f2e5b02a171f32dd0a9863c360551d6757f93137b44a6a36e87bb072376e7351&#45;&gt;_ef411fe8fcaa0f26fd6d42d8672c49f4527427890f7880833a41e98582cea353 -->
<g id="edge14" class="edge">
<title>_f2e5b02a171f32dd0a9863c360551d6757f93137b44a6a36e87bb072376e7351&#45;&gt;_ef411fe8fcaa0f26fd6d42d8672c49f4527427890f7880833a41e98582cea353</title>
<path fill="none" stroke="gray" d="M1431.16,-88.03C1415.63,-82.66 1398.68,-76.56 1383.25,-70.5 1360.23,-61.46 1335.09,-50.56 1314.01,-41.12"/>
<polygon fill="gray" stroke="gray" points="1315.63,-38.01 1305.08,-37.09 1312.76,-44.39 1315.63,-38.01"/>
<text xml:space="preserve" text-anchor="middle" x="1424.12" y="-57.2" font-family="Times,serif" font-size="14.00">owl:versionIRI</text>
</g>
<!-- _b508e8baa7623798f008be32f495492f7eb379649447af7738f40d11b96a73ac -->
<g id="node26" class="node">
<title>_b508e8baa7623798f008be32f495492f7eb379649447af7738f40d11b96a73ac</title>
<polygon fill="none" stroke="black" points="1800.62,-36 1473.38,-36 1473.38,0 1800.62,0 1800.62,-36"/>
<text xml:space="preserve" text-anchor="middle" x="1637" y="-12.95" font-family="Times,serif" font-size="14.00">IRI &#45; https://ontology.unifiedcyberontology.org/owl/1.3.0</text>
</g>
<!-- _f2e5b02a171f32dd0a9863c360551d6757f93137b44a6a36e87bb072376e7351&#45;&gt;_b508e8baa7623798f008be32f495492f7eb379649447af7738f40d11b96a73ac -->
<g id="edge9" class="edge">
<title>_f2e5b02a171f32dd0a9863c360551d6757f93137b44a6a36e87bb072376e7351&#45;&gt;_b508e8baa7623798f008be32f495492f7eb379649447af7738f40d11b96a73ac</title>
<path fill="none" stroke="gray" stroke-dasharray="5,2" d="M1474,-88.03C1469.24,-77.17 1466.07,-63.5 1473.75,-54 1478.18,-48.52 1486.81,-43.86 1497.9,-39.9"/>
<polygon fill="gray" stroke="gray" points="1498.8,-43.29 1507.27,-36.93 1496.68,-36.62 1498.8,-43.29"/>
<text xml:space="preserve" text-anchor="middle" x="1557.38" y="-57.2" font-family="Times,serif" font-size="14.00">owl:backwardCompatibleWith</text>
</g>
<!-- _f2e5b02a171f32dd0a9863c360551d6757f93137b44a6a36e87bb072376e7351&#45;&gt;_b508e8baa7623798f008be32f495492f7eb379649447af7738f40d11b96a73ac -->
<g id="edge12" class="edge">
<title>_f2e5b02a171f32dd0a9863c360551d6757f93137b44a6a36e87bb072376e7351&#45;&gt;_b508e8baa7623798f008be32f495492f7eb379649447af7738f40d11b96a73ac</title>
<path fill="none" stroke="gray" stroke-dasharray="5,2" d="M1605.92,-88.06C1622.21,-83.41 1635.28,-77.64 1641,-70.5 1646.18,-64.03 1647.1,-55.52 1646.16,-47.28"/>
<polygon fill="gray" stroke="gray" points="1649.6,-46.63 1644.15,-37.55 1642.75,-48.05 1649.6,-46.63"/>
<text xml:space="preserve" text-anchor="middle" x="1692.21" y="-57.2" font-family="Times,serif" font-size="14.00">owl:priorVersion</text>
</g>
<!-- _b36c45b4f5b4aeac98820e39c3c535e75aa210dc96aaa8360d70d28bcdeacc2d -->
<g id="node23" class="node">
<title>_b36c45b4f5b4aeac98820e39c3c535e75aa210dc96aaa8360d70d28bcdeacc2d</title>
<polygon fill="none" stroke="black" points="1263.88,-213 1100.12,-213 1100.12,-177 1263.88,-177 1263.88,-213"/>
<text xml:space="preserve" text-anchor="middle" x="1182" y="-189.95" font-family="Times,serif" font-size="14.00">IRI &#45; http://example.org/kb</text>
</g>
<!-- _b36c45b4f5b4aeac98820e39c3c535e75aa210dc96aaa8360d70d28bcdeacc2d&#45;&gt;_dc7a6d281f729cbeaa414a9670addb56912f2be036498ebf27c9d1ae3c2d462e -->
<g id="edge11" class="edge">
<title>_b36c45b4f5b4aeac98820e39c3c535e75aa210dc96aaa8360d70d28bcdeacc2d&#45;&gt;_dc7a6d281f729cbeaa414a9670addb56912f2be036498ebf27c9d1ae3c2d462e</title>
<path fill="none" stroke="black" d="M1136.74,-176.6C1100.96,-162.85 1050.86,-143.58 1012.63,-128.89"/>
<polygon fill="none" stroke="black" points="1014.19,-125.74 1003.6,-125.42 1011.68,-132.27 1014.19,-125.74"/>
<text xml:space="preserve" text-anchor="middle" x="1122.65" y="-145.7" font-family="Times,serif" font-size="14.00">owl:imports</text>
</g>
<!-- _b36c45b4f5b4aeac98820e39c3c535e75aa210dc96aaa8360d70d28bcdeacc2d&#45;&gt;_7e7fcdca06e527648f2f5f757451b77691e8c0694969f0d9bb23885f136d5618 -->
<g id="edge7" class="edge">
<title>_b36c45b4f5b4aeac98820e39c3c535e75aa210dc96aaa8360d70d28bcdeacc2d&#45;&gt;_7e7fcdca06e527648f2f5f757451b77691e8c0694969f0d9bb23885f136d5618</title>
<path fill="none" stroke="black" d="M1186.35,-176.91C1189.34,-165.14 1193.39,-149.23 1196.85,-135.61"/>
<polygon fill="black" stroke="black" points="1200.14,-136.87 1199.21,-126.32 1193.36,-135.15 1200.14,-136.87"/>
<text xml:space="preserve" text-anchor="middle" x="1251.97" y="-145.7" font-family="Times,serif" font-size="14.00">dcterms:conformsTo</text>
</g>
<!-- _0463103e0e66a74271e34247502ecbbbd1e890bd1945f8976557c5e5935ffecc -->
<g id="node24" class="node">
<title>_0463103e0e66a74271e34247502ecbbbd1e890bd1945f8976557c5e5935ffecc</title>
<polygon fill="none" stroke="black" points="3965.88,-213 3538.12,-213 3538.12,-177 3965.88,-177 3965.88,-213"/>
<text xml:space="preserve" text-anchor="middle" x="3752" y="-189.95" font-family="Times,serif" font-size="14.00">IRI &#45; http://example.org/kb/Thing&#45;a0c343bc&#45;d88a&#45;49b2&#45;820f&#45;7a47b72f7cee</text>
</g>
<!-- _48844ea0904f7551f391598e84a83b7b0533868cfef4ebfc28cb68e94bc037ea -->
<g id="node25" class="node">
<title>_48844ea0904f7551f391598e84a83b7b0533868cfef4ebfc28cb68e94bc037ea</title>
<polygon fill="none" stroke="black" points="3975.62,-124.5 3528.38,-124.5 3528.38,-88.5 3975.62,-88.5 3975.62,-124.5"/>
<text xml:space="preserve" text-anchor="middle" x="3752" y="-101.45" font-family="Times,serif" font-size="14.00">IRI &#45; http://example.org/kb/Standard&#45;19bbae12&#45;25b2&#45;451d&#45;85aa&#45;b3ebefb49bd8</text>
</g>
<!-- _0463103e0e66a74271e34247502ecbbbd1e890bd1945f8976557c5e5935ffecc&#45;&gt;_48844ea0904f7551f391598e84a83b7b0533868cfef4ebfc28cb68e94bc037ea -->
<g id="edge8" class="edge">
<title>_0463103e0e66a74271e34247502ecbbbd1e890bd1945f8976557c5e5935ffecc&#45;&gt;_48844ea0904f7551f391598e84a83b7b0533868cfef4ebfc28cb68e94bc037ea</title>
<path fill="none" stroke="black" d="M3752,-176.91C3752,-165.26 3752,-149.55 3752,-136.02"/>
<polygon fill="black" stroke="black" points="3755.5,-136.36 3752,-126.36 3748.5,-136.36 3755.5,-136.36"/>
<text xml:space="preserve" text-anchor="middle" x="3809" y="-145.7" font-family="Times,serif" font-size="14.00">dcterms:conformsTo</text>
</g>
</g>
</svg>
