<?xml version="1.0" encoding="UTF-8" standalone="no"?>
<!DOCTYPE svg PUBLIC "-//W3C//DTD SVG 1.1//EN"
 "http://www.w3.org/Graphics/SVG/1.1/DTD/svg11.dtd">
<!-- Generated by graphviz version 14.1.5 (20260411.2331)
 -->
<!-- Title: G Pages: 1 -->
<svg width="1566pt" height="278pt"
 viewBox="0.00 0.00 1566.00 278.00" xmlns="http://www.w3.org/2000/svg" xmlns:xlink="http://www.w3.org/1999/xlink">
<g id="graph0" class="graph" transform="scale(1 1) rotate(0) translate(4 274)">
<title>G</title>
<polygon fill="white" stroke="none" points="-4,4 -4,-274 1561.62,-274 1561.62,4 -4,4"/>
<g id="clust1" class="cluster">
<title>cluster_legend</title>
<polygon fill="none" stroke="black" points="8,-80.5 8,-262 703,-262 703,-80.5 8,-80.5"/>
<text xml:space="preserve" text-anchor="middle" x="355.5" y="-244.7" font-family="Times,serif" font-size="14.00">Legend</text>
<text xml:space="preserve" text-anchor="middle" x="355.5" y="-228.2" font-family="Times,serif" font-size="14.00">Note: edges in legend only show most general applicability.</text>
</g>
<!-- _6be42d3db9cf20b926086b834a126e2c64aa8afeb6017f801e12d8e940b021d5 -->
<g id="node1" class="node">
<title>_6be42d3db9cf20b926086b834a126e2c64aa8afeb6017f801e12d8e940b021d5</title>
<polygon fill="none" stroke="black" points="90.12,-213 17.88,-213 17.88,-177 90.12,-177 90.12,-213"/>
<text xml:space="preserve" text-anchor="middle" x="54" y="-189.95" font-family="Times,serif" font-size="14.00">owl:Thing</text>
</g>
<!-- _cfbd84720b96d207f7d3ef32e86ab2451472ca207077c2bdb8581e452d8a663c -->
<g id="node2" class="node">
<title>_cfbd84720b96d207f7d3ef32e86ab2451472ca207077c2bdb8581e452d8a663c</title>
<polygon fill="none" stroke="black" points="121.62,-124.5 16.38,-124.5 16.38,-88.5 127.62,-88.5 127.62,-118.5 121.62,-124.5"/>
<polyline fill="none" stroke="black" points="121.62,-124.5 121.62,-118.5"/>
<polyline fill="none" stroke="black" points="127.62,-118.5 121.62,-118.5"/>
<text xml:space="preserve" text-anchor="middle" x="72" y="-101.45" font-family="Times,serif" font-size="14.00">dcterms:Standard</text>
</g>
<!-- _6be42d3db9cf20b926086b834a126e2c64aa8afeb6017f801e12d8e940b021d5&#45;&gt;_cfbd84720b96d207f7d3ef32e86ab2451472ca207077c2bdb8581e452d8a663c -->
<g id="edge1" class="edge">
<title>_6be42d3db9cf20b926086b834a126e2c64aa8afeb6017f801e12d8e940b021d5&#45;&gt;_cfbd84720b96d207f7d3ef32e86ab2451472ca207077c2bdb8581e452d8a663c</title>
<path fill="none" stroke="black" d="M52.49,-176.6C52.08,-166.5 52.33,-153.63 55,-142.5 55.59,-140.05 56.37,-137.56 57.27,-135.11"/>
<polygon fill="black" stroke="black" points="60.4,-136.7 61.19,-126.14 53.98,-133.9 60.4,-136.7"/>
<text xml:space="preserve" text-anchor="middle" x="112" y="-145.7" font-family="Times,serif" font-size="14.00">dcterms:conformsTo</text>
</g>
<!-- _d3ebcfee627862e24b4c02f95b40a1d414501a35de08d9433b9bc313593f226b -->
<g id="node3" class="node">
<title>_d3ebcfee627862e24b4c02f95b40a1d414501a35de08d9433b9bc313593f226b</title>
<polygon fill="none" stroke="black" points="236.5,-213 145.5,-213 145.5,-177 236.5,-177 236.5,-213"/>
<text xml:space="preserve" text-anchor="middle" x="191" y="-189.95" font-family="Times,serif" font-size="14.00">owl:Ontology</text>
</g>
<!-- _36453afe86e7e9240886243514581cd9093de1f7ebca250869cf581f3578a963 -->
<g id="node4" class="node">
<title>_36453afe86e7e9240886243514581cd9093de1f7ebca250869cf581f3578a963</title>
<polygon fill="none" stroke="#9b9b9b" points="280.25,-124.5 145.75,-124.5 145.75,-88.5 280.25,-88.5 280.25,-124.5"/>
<text xml:space="preserve" text-anchor="middle" x="213" y="-101.45" font-family="Times,serif" font-size="14.00">owl:versionIRI object</text>
</g>
<!-- _d3ebcfee627862e24b4c02f95b40a1d414501a35de08d9433b9bc313593f226b&#45;&gt;_36453afe86e7e9240886243514581cd9093de1f7ebca250869cf581f3578a963 -->
<g id="edge2" class="edge">
<title>_d3ebcfee627862e24b4c02f95b40a1d414501a35de08d9433b9bc313593f226b&#45;&gt;_36453afe86e7e9240886243514581cd9093de1f7ebca250869cf581f3578a963</title>
<path fill="none" stroke="gray" stroke-dasharray="5,2" d="M186.81,-176.91C185.06,-166.69 184.17,-153.58 187.75,-142.5 188.64,-139.76 189.83,-137.04 191.21,-134.42"/>
<polygon fill="gray" stroke="gray" points="194.08,-136.43 196.46,-126.11 188.16,-132.7 194.08,-136.43"/>
<text xml:space="preserve" text-anchor="middle" x="271.38" y="-145.7" font-family="Times,serif" font-size="14.00">owl:backwardCompatibleWith</text>
</g>
<!-- _dff2c21a2c6c4241453ba27c8017f28b476e1c237fe5224d565322ea299e6044 -->
<g id="node5" class="node">
<title>_dff2c21a2c6c4241453ba27c8017f28b476e1c237fe5224d565322ea299e6044</title>
<polygon fill="none" stroke="black" points="379.5,-213 288.5,-213 288.5,-177 379.5,-177 379.5,-213"/>
<text xml:space="preserve" text-anchor="middle" x="334" y="-189.95" font-family="Times,serif" font-size="14.00">owl:Ontology</text>
</g>
<!-- _017b8d0cbb5ff892223344da777a622e10a1fcc984f4a2c596609f45595f8a0f -->
<g id="node6" class="node">
<title>_017b8d0cbb5ff892223344da777a622e10a1fcc984f4a2c596609f45595f8a0f</title>
<polygon fill="none" stroke="black" points="389.5,-124.5 298.5,-124.5 298.5,-88.5 389.5,-88.5 389.5,-124.5"/>
<text xml:space="preserve" text-anchor="middle" x="344" y="-101.45" font-family="Times,serif" font-size="14.00">owl:Ontology</text>
</g>
<!-- _dff2c21a2c6c4241453ba27c8017f28b476e1c237fe5224d565322ea299e6044&#45;&gt;_017b8d0cbb5ff892223344da777a622e10a1fcc984f4a2c596609f45595f8a0f -->
<g id="edge3" class="edge">
<title>_dff2c21a2c6c4241453ba27c8017f28b476e1c237fe5224d565322ea299e6044&#45;&gt;_017b8d0cbb5ff892223344da777a622e10a1fcc984f4a2c596609f45595f8a0f</title>
<path fill="none" stroke="black" d="M349.58,-176.65C353.41,-171.35 356.99,-165.26 359,-159 361.44,-151.37 360.55,-143.06 358.29,-135.38"/>
<polygon fill="none" stroke="black" points="361.61,-134.24 354.77,-126.15 355.07,-136.74 361.61,-134.24"/>
<text xml:space="preserve" text-anchor="middle" x="393.46" y="-145.7" font-family="Times,serif" font-size="14.00">owl:imports</text>
</g>
<!-- _40c452addb86544e9b40de1944b297b1161f8f5ce8439cbe319e678707c846f2 -->
<g id="node7" class="node">
<title>_40c452addb86544e9b40de1944b297b1161f8f5ce8439cbe319e678707c846f2</title>
<polygon fill="none" stroke="black" points="488.5,-213 397.5,-213 397.5,-177 488.5,-177 488.5,-213"/>
<text xml:space="preserve" text-anchor="middle" x="443" y="-189.95" font-family="Times,serif" font-size="14.00">owl:Ontology</text>
</g>
<!-- _f2485448b322a450afac39060561a1ba5651db175a9ecdd4c6d9fd819e7ce02a -->
<g id="node8" class="node">
<title>_f2485448b322a450afac39060561a1ba5651db175a9ecdd4c6d9fd819e7ce02a</title>
<polygon fill="none" stroke="#9b9b9b" points="542.25,-124.5 407.75,-124.5 407.75,-88.5 542.25,-88.5 542.25,-124.5"/>
<text xml:space="preserve" text-anchor="middle" x="475" y="-101.45" font-family="Times,serif" font-size="14.00">owl:versionIRI object</text>
</g>
<!-- _40c452addb86544e9b40de1944b297b1161f8f5ce8439cbe319e678707c846f2&#45;&gt;_f2485448b322a450afac39060561a1ba5651db175a9ecdd4c6d9fd819e7ce02a -->
<g id="edge4" class="edge">
<title>_40c452addb86544e9b40de1944b297b1161f8f5ce8439cbe319e678707c846f2&#45;&gt;_f2485448b322a450afac39060561a1ba5651db175a9ecdd4c6d9fd819e7ce02a</title>
<path fill="none" stroke="gray" stroke-dasharray="5,2" d="M449.32,-176.91C453.68,-165.14 459.56,-149.23 464.6,-135.61"/>
<polygon fill="gray" stroke="gray" points="467.87,-136.86 468.06,-126.27 461.3,-134.43 467.87,-136.86"/>
<text xml:space="preserve" text-anchor="middle" x="507.62" y="-145.7" font-family="Times,serif" font-size="14.00">owl:priorVersion</text>
</g>
<!-- _75f66095baa60592fcc7e97fa489026e7d6d757a63fd11c6624a34d06a3633b4 -->
<g id="node9" class="node">
<title>_75f66095baa60592fcc7e97fa489026e7d6d757a63fd11c6624a34d06a3633b4</title>
<polygon fill="none" stroke="black" points="597.5,-213 506.5,-213 506.5,-177 597.5,-177 597.5,-213"/>
<text xml:space="preserve" text-anchor="middle" x="552" y="-189.95" font-family="Times,serif" font-size="14.00">owl:Ontology</text>
</g>
<!-- _44a157d5fabe5bbf54dd1f384ccfb8f02ceba69069cdc8888499da1b7930714f -->
<g id="node10" class="node">
<title>_44a157d5fabe5bbf54dd1f384ccfb8f02ceba69069cdc8888499da1b7930714f</title>
<polygon fill="none" stroke="#9b9b9b" points="695.25,-124.5 560.75,-124.5 560.75,-88.5 695.25,-88.5 695.25,-124.5"/>
<text xml:space="preserve" text-anchor="middle" x="628" y="-101.45" font-family="Times,serif" font-size="14.00">owl:versionIRI object</text>
</g>
<!-- _75f66095baa60592fcc7e97fa489026e7d6d757a63fd11c6624a34d06a3633b4&#45;&gt;_44a157d5fabe5bbf54dd1f384ccfb8f02ceba69069cdc8888499da1b7930714f -->
<g id="edge5" class="edge">
<title>_75f66095baa60592fcc7e97fa489026e7d6d757a63fd11c6624a34d06a3633b4&#45;&gt;_44a157d5fabe5bbf54dd1f384ccfb8f02ceba69069cdc8888499da1b7930714f</title>
<path fill="none" stroke="gray" d="M567.02,-176.91C577.98,-164.43 593.03,-147.3 605.43,-133.18"/>
<polygon fill="gray" stroke="gray" points="607.79,-135.81 611.76,-125.99 602.53,-131.19 607.79,-135.81"/>
<text xml:space="preserve" text-anchor="middle" x="637.68" y="-145.7" font-family="Times,serif" font-size="14.00">owl:versionIRI</text>
</g>
<!-- _3996bb2edc1e048a0f85bf613e99985e4a089bd6567ed7846195d45f64b8658a -->
<g id="node11" class="node">
<title>_3996bb2edc1e048a0f85bf613e99985e4a089bd6567ed7846195d45f64b8658a</title>
<polygon fill="#9b9b9b" stroke="black" points="694.5,-213 615.5,-213 615.5,-177 694.5,-177 694.5,-213"/>
<text xml:space="preserve" text-anchor="middle" x="655" y="-189.95" font-family="Times,serif" font-size="14.00">prof:Profile</text>
</g>
<!-- _dc7a6d281f729cbeaa414a9670addb56912f2be036498ebf27c9d1ae3c2d462e -->
<g id="node12" class="node">
<title>_dc7a6d281f729cbeaa414a9670addb56912f2be036498ebf27c9d1ae3c2d462e</title>
<polygon fill="none" stroke="#9b9b9b" points="1197.5,-124.5 968.5,-124.5 968.5,-88.5 1197.5,-88.5 1197.5,-124.5"/>
<text xml:space="preserve" text-anchor="middle" x="1083" y="-101.45" font-family="Times,serif" font-size="14.00">IRI &#45; http://www.w3.org/ns/dx/prof/1.0</text>
</g>
<!-- _ef411fe8fcaa0f26fd6d42d8672c49f4527427890f7880833a41e98582cea353 -->
<g id="node13" class="node">
<title>_ef411fe8fcaa0f26fd6d42d8672c49f4527427890f7880833a41e98582cea353</title>
<polygon fill="none" stroke="#9b9b9b" points="1149.62,-36 822.38,-36 822.38,0 1149.62,0 1149.62,-36"/>
<text xml:space="preserve" text-anchor="middle" x="986" y="-12.95" font-family="Times,serif" font-size="14.00">IRI &#45; https://ontology.unifiedcyberontology.org/owl/1.4.0</text>
</g>
<!-- _7e7fcdca06e527648f2f5f757451b77691e8c0694969f0d9bb23885f136d5618 -->
<g id="node14" class="node">
<title>_7e7fcdca06e527648f2f5f757451b77691e8c0694969f0d9bb23885f136d5618</title>
<polygon fill="none" stroke="black" points="950.5,-124.5 721.5,-124.5 721.5,-88.5 950.5,-88.5 950.5,-124.5"/>
<text xml:space="preserve" text-anchor="middle" x="836" y="-101.45" font-family="Times,serif" font-size="14.00">IRI &#45; http://example.org/shapes/sh&#45;prof</text>
</g>
<!-- _7e7fcdca06e527648f2f5f757451b77691e8c0694969f0d9bb23885f136d5618&#45;&gt;_ef411fe8fcaa0f26fd6d42d8672c49f4527427890f7880833a41e98582cea353 -->
<g id="edge9" class="edge">
<title>_7e7fcdca06e527648f2f5f757451b77691e8c0694969f0d9bb23885f136d5618&#45;&gt;_ef411fe8fcaa0f26fd6d42d8672c49f4527427890f7880833a41e98582cea353</title>
<path fill="none" stroke="black" d="M865.99,-88.2C888.91,-74.99 920.73,-56.64 945.84,-42.16"/>
<polygon fill="none" stroke="black" points="947.58,-45.2 954.49,-37.17 944.08,-39.13 947.58,-45.2"/>
<text xml:space="preserve" text-anchor="middle" x="957.44" y="-57.2" font-family="Times,serif" font-size="14.00">owl:imports</text>
</g>
<!-- _c7f3d2538524bd8575cde368ba1de43430b3acf816e7c430a3ab938efef654ad -->
<g id="node15" class="node">
<title>_c7f3d2538524bd8575cde368ba1de43430b3acf816e7c430a3ab938efef654ad</title>
<polygon fill="none" stroke="black" points="961.25,-213 712.75,-213 712.75,-177 961.25,-177 961.25,-213"/>
<text xml:space="preserve" text-anchor="middle" x="837" y="-189.95" font-family="Times,serif" font-size="14.00">IRI &#45; http://example.org/ontology/cdo&#45;prof</text>
</g>
<!-- _c7f3d2538524bd8575cde368ba1de43430b3acf816e7c430a3ab938efef654ad&#45;&gt;_dc7a6d281f729cbeaa414a9670addb56912f2be036498ebf27c9d1ae3c2d462e -->
<g id="edge8" class="edge">
<title>_c7f3d2538524bd8575cde368ba1de43430b3acf816e7c430a3ab938efef654ad&#45;&gt;_dc7a6d281f729cbeaa414a9670addb56912f2be036498ebf27c9d1ae3c2d462e</title>
<path fill="none" stroke="black" d="M899.82,-176.56C917.75,-171.26 937.24,-165.19 955,-159 980.69,-150.04 1008.79,-138.89 1032.1,-129.26"/>
<polygon fill="none" stroke="black" points="1033.16,-132.61 1041.05,-125.54 1030.47,-126.15 1033.16,-132.61"/>
<text xml:space="preserve" text-anchor="middle" x="1030.66" y="-145.7" font-family="Times,serif" font-size="14.00">owl:imports</text>
</g>
<!-- _c7f3d2538524bd8575cde368ba1de43430b3acf816e7c430a3ab938efef654ad&#45;&gt;_7e7fcdca06e527648f2f5f757451b77691e8c0694969f0d9bb23885f136d5618 -->
<g id="edge6" class="edge">
<title>_c7f3d2538524bd8575cde368ba1de43430b3acf816e7c430a3ab938efef654ad&#45;&gt;_7e7fcdca06e527648f2f5f757451b77691e8c0694969f0d9bb23885f136d5618</title>
<path fill="none" stroke="black" d="M836.8,-176.91C836.67,-165.26 836.49,-149.55 836.33,-136.02"/>
<polygon fill="black" stroke="black" points="839.83,-136.32 836.22,-126.36 832.83,-136.4 839.83,-136.32"/>
<text xml:space="preserve" text-anchor="middle" x="893.59" y="-145.7" font-family="Times,serif" font-size="14.00">dcterms:conformsTo</text>
</g>
<!-- _104e7bcaa55bc08d018828107e55543f900143a3e9d6427d84e0e78a7797f13d -->
<g id="node16" class="node">
<title>_104e7bcaa55bc08d018828107e55543f900143a3e9d6427d84e0e78a7797f13d</title>
<polygon fill="none" stroke="black" points="1187,-213 979,-213 979,-177 1187,-177 1187,-213"/>
<text xml:space="preserve" text-anchor="middle" x="1083" y="-189.95" font-family="Times,serif" font-size="14.00">IRI &#45; http://www.w3.org/ns/dx/prof</text>
</g>
<!-- _104e7bcaa55bc08d018828107e55543f900143a3e9d6427d84e0e78a7797f13d&#45;&gt;_dc7a6d281f729cbeaa414a9670addb56912f2be036498ebf27c9d1ae3c2d462e -->
<g id="edge11" class="edge">
<title>_104e7bcaa55bc08d018828107e55543f900143a3e9d6427d84e0e78a7797f13d&#45;&gt;_dc7a6d281f729cbeaa414a9670addb56912f2be036498ebf27c9d1ae3c2d462e</title>
<path fill="none" stroke="gray" d="M1083,-176.91C1083,-165.26 1083,-149.55 1083,-136.02"/>
<polygon fill="gray" stroke="gray" points="1086.5,-136.36 1083,-126.36 1079.5,-136.36 1086.5,-136.36"/>
<text xml:space="preserve" text-anchor="middle" x="1123.88" y="-145.7" font-family="Times,serif" font-size="14.00">owl:versionIRI</text>
</g>
<!-- _f2e5b02a171f32dd0a9863c360551d6757f93137b44a6a36e87bb072376e7351 -->
<g id="node17" class="node">
<title>_f2e5b02a171f32dd0a9863c360551d6757f93137b44a6a36e87bb072376e7351</title>
<polygon fill="none" stroke="black" points="1510.88,-124.5 1215.12,-124.5 1215.12,-88.5 1510.88,-88.5 1510.88,-124.5"/>
<text xml:space="preserve" text-anchor="middle" x="1363" y="-101.45" font-family="Times,serif" font-size="14.00">IRI &#45; https://ontology.unifiedcyberontology.org/owl</text>
</g>
<!-- _f2e5b02a171f32dd0a9863c360551d6757f93137b44a6a36e87bb072376e7351&#45;&gt;_ef411fe8fcaa0f26fd6d42d8672c49f4527427890f7880833a41e98582cea353 -->
<g id="edge12" class="edge">
<title>_f2e5b02a171f32dd0a9863c360551d6757f93137b44a6a36e87bb072376e7351&#45;&gt;_ef411fe8fcaa0f26fd6d42d8672c49f4527427890f7880833a41e98582cea353</title>
<path fill="none" stroke="gray" d="M1263.48,-88.05C1235.8,-82.82 1205.78,-76.79 1178.25,-70.5 1137.95,-61.3 1093.34,-49.45 1057.24,-39.44"/>
<polygon fill="gray" stroke="gray" points="1058.35,-36.12 1047.78,-36.8 1056.47,-42.86 1058.35,-36.12"/>
<text xml:space="preserve" text-anchor="middle" x="1219.12" y="-57.2" font-family="Times,serif" font-size="14.00">owl:versionIRI</text>
</g>
<!-- _b508e8baa7623798f008be32f495492f7eb379649447af7738f40d11b96a73ac -->
<g id="node18" class="node">
<title>_b508e8baa7623798f008be32f495492f7eb379649447af7738f40d11b96a73ac</title>
<polygon fill="none" stroke="black" points="1557.62,-36 1230.38,-36 1230.38,0 1557.62,0 1557.62,-36"/>
<text xml:space="preserve" text-anchor="middle" x="1394" y="-12.95" font-family="Times,serif" font-size="14.00">IRI &#45; https://ontology.unifiedcyberontology.org/owl/1.3.0</text>
</g>
<!-- _f2e5b02a171f32dd0a9863c360551d6757f93137b44a6a36e87bb072376e7351&#45;&gt;_b508e8baa7623798f008be32f495492f7eb379649447af7738f40d11b96a73ac -->
<g id="edge7" class="edge">
<title>_f2e5b02a171f32dd0a9863c360551d6757f93137b44a6a36e87bb072376e7351&#45;&gt;_b508e8baa7623798f008be32f495492f7eb379649447af7738f40d11b96a73ac</title>
<path fill="none" stroke="gray" stroke-dasharray="5,2" d="M1288.38,-88.1C1269.51,-80.07 1257.42,-68.93 1268.75,-54 1272.72,-48.77 1281.36,-44.11 1292.33,-40.02"/>
<polygon fill="gray" stroke="gray" points="1293.2,-43.42 1301.57,-36.92 1290.98,-36.79 1293.2,-43.42"/>
<text xml:space="preserve" text-anchor="middle" x="1352.38" y="-57.2" font-family="Times,serif" font-size="14.00">owl:backwardCompatibleWith</text>
</g>
<!-- _f2e5b02a171f32dd0a9863c360551d6757f93137b44a6a36e87bb072376e7351&#45;&gt;_b508e8baa7623798f008be32f495492f7eb379649447af7738f40d11b96a73ac -->
<g id="edge10" class="edge">
<title>_f2e5b02a171f32dd0a9863c360551d6757f93137b44a6a36e87bb072376e7351&#45;&gt;_b508e8baa7623798f008be32f495492f7eb379649447af7738f40d11b96a73ac</title>
<path fill="none" stroke="gray" stroke-dasharray="5,2" d="M1417.59,-88.14C1424.9,-83.54 1431.43,-77.76 1436,-70.5 1441.72,-61.42 1437.74,-52.14 1430.35,-44"/>
<polygon fill="gray" stroke="gray" points="1432.88,-41.58 1423.17,-37.33 1428.11,-46.7 1432.88,-41.58"/>
<text xml:space="preserve" text-anchor="middle" x="1484.47" y="-57.2" font-family="Times,serif" font-size="14.00">owl:priorVersion</text>
</g>
</g>
</svg>
