<?xml version="1.0" encoding="UTF-8" standalone="no"?>
<!DOCTYPE svg PUBLIC "-//W3C//DTD SVG 1.1//EN"
 "http://www.w3.org/Graphics/SVG/1.1/DTD/svg11.dtd">
<!-- Generated by graphviz version 14.1.5 (20260411.2331)
 -->
<!-- Title: G Pages: 1 -->
<svg width="1530pt" height="206pt"
 viewBox="0.00 0.00 1530.00 206.00" xmlns="http://www.w3.org/2000/svg" xmlns:xlink="http://www.w3.org/1999/xlink">
<g id="graph0" class="graph" transform="scale(1 1) rotate(0) translate(4 201.5)">
<title>G</title>
<polygon fill="white" stroke="none" points="-4,4 -4,-201.5 1525.62,-201.5 1525.62,4 -4,4"/>
<g id="clust1" class="cluster">
<title>cluster_legend</title>
<polygon fill="none" stroke="black" points="8,-8 8,-189.5 573,-189.5 573,-8 8,-8"/>
<text xml:space="preserve" text-anchor="middle" x="290.5" y="-172.2" font-family="Times,serif" font-size="14.00">Legend</text>
<text xml:space="preserve" text-anchor="middle" x="290.5" y="-155.7" font-family="Times,serif" font-size="14.00">Note: edges in legend only show most general applicability.</text>
</g>
<!-- _d3ebcfee627862e24b4c02f95b40a1d414501a35de08d9433b9bc313593f226b -->
<g id="node1" class="node">
<title>_d3ebcfee627862e24b4c02f95b40a1d414501a35de08d9433b9bc313593f226b</title>
<polygon fill="none" stroke="black" points="107.5,-140.5 16.5,-140.5 16.5,-104.5 107.5,-104.5 107.5,-140.5"/>
<text xml:space="preserve" text-anchor="middle" x="62" y="-117.45" font-family="Times,serif" font-size="14.00">owl:Ontology</text>
</g>
<!-- _36453afe86e7e9240886243514581cd9093de1f7ebca250869cf581f3578a963 -->
<g id="node2" class="node">
<title>_36453afe86e7e9240886243514581cd9093de1f7ebca250869cf581f3578a963</title>
<polygon fill="none" stroke="#9b9b9b" points="150.25,-52 15.75,-52 15.75,-16 150.25,-16 150.25,-52"/>
<text xml:space="preserve" text-anchor="middle" x="83" y="-28.95" font-family="Times,serif" font-size="14.00">owl:versionIRI object</text>
</g>
<!-- _d3ebcfee627862e24b4c02f95b40a1d414501a35de08d9433b9bc313593f226b&#45;&gt;_36453afe86e7e9240886243514581cd9093de1f7ebca250869cf581f3578a963 -->
<g id="edge1" class="edge">
<title>_d3ebcfee627862e24b4c02f95b40a1d414501a35de08d9433b9bc313593f226b&#45;&gt;_36453afe86e7e9240886243514581cd9093de1f7ebca250869cf581f3578a963</title>
<path fill="none" stroke="gray" stroke-dasharray="5,2" d="M55.62,-104.4C52.77,-94.18 50.84,-81.07 54.75,-70 55.76,-67.13 57.12,-64.32 58.7,-61.63"/>
<polygon fill="gray" stroke="gray" points="61.4,-63.87 64.26,-53.67 55.67,-59.86 61.4,-63.87"/>
<text xml:space="preserve" text-anchor="middle" x="138.38" y="-73.2" font-family="Times,serif" font-size="14.00">owl:backwardCompatibleWith</text>
</g>
<!-- _dff2c21a2c6c4241453ba27c8017f28b476e1c237fe5224d565322ea299e6044 -->
<g id="node3" class="node">
<title>_dff2c21a2c6c4241453ba27c8017f28b476e1c237fe5224d565322ea299e6044</title>
<polygon fill="none" stroke="black" points="287.5,-140.5 196.5,-140.5 196.5,-104.5 287.5,-104.5 287.5,-140.5"/>
<text xml:space="preserve" text-anchor="middle" x="242" y="-117.45" font-family="Times,serif" font-size="14.00">owl:Ontology</text>
</g>
<!-- _017b8d0cbb5ff892223344da777a622e10a1fcc984f4a2c596609f45595f8a0f -->
<g id="node4" class="node">
<title>_017b8d0cbb5ff892223344da777a622e10a1fcc984f4a2c596609f45595f8a0f</title>
<polygon fill="none" stroke="black" points="259.5,-52 168.5,-52 168.5,-16 259.5,-16 259.5,-52"/>
<text xml:space="preserve" text-anchor="middle" x="214" y="-28.95" font-family="Times,serif" font-size="14.00">owl:Ontology</text>
</g>
<!-- _dff2c21a2c6c4241453ba27c8017f28b476e1c237fe5224d565322ea299e6044&#45;&gt;_017b8d0cbb5ff892223344da777a622e10a1fcc984f4a2c596609f45595f8a0f -->
<g id="edge2" class="edge">
<title>_dff2c21a2c6c4241453ba27c8017f28b476e1c237fe5224d565322ea299e6044&#45;&gt;_017b8d0cbb5ff892223344da777a622e10a1fcc984f4a2c596609f45595f8a0f</title>
<path fill="none" stroke="black" d="M236.47,-104.41C232.66,-92.64 227.51,-76.73 223.1,-63.11"/>
<polygon fill="none" stroke="black" points="226.49,-62.23 220.08,-53.79 219.83,-64.38 226.49,-62.23"/>
<text xml:space="preserve" text-anchor="middle" x="263.51" y="-73.2" font-family="Times,serif" font-size="14.00">owl:imports</text>
</g>
<!-- _40c452addb86544e9b40de1944b297b1161f8f5ce8439cbe319e678707c846f2 -->
<g id="node5" class="node">
<title>_40c452addb86544e9b40de1944b297b1161f8f5ce8439cbe319e678707c846f2</title>
<polygon fill="none" stroke="black" points="396.5,-140.5 305.5,-140.5 305.5,-104.5 396.5,-104.5 396.5,-140.5"/>
<text xml:space="preserve" text-anchor="middle" x="351" y="-117.45" font-family="Times,serif" font-size="14.00">owl:Ontology</text>
</g>
<!-- _f2485448b322a450afac39060561a1ba5651db175a9ecdd4c6d9fd819e7ce02a -->
<g id="node6" class="node">
<title>_f2485448b322a450afac39060561a1ba5651db175a9ecdd4c6d9fd819e7ce02a</title>
<polygon fill="none" stroke="#9b9b9b" points="412.25,-52 277.75,-52 277.75,-16 412.25,-16 412.25,-52"/>
<text xml:space="preserve" text-anchor="middle" x="345" y="-28.95" font-family="Times,serif" font-size="14.00">owl:versionIRI object</text>
</g>
<!-- _40c452addb86544e9b40de1944b297b1161f8f5ce8439cbe319e678707c846f2&#45;&gt;_f2485448b322a450afac39060561a1ba5651db175a9ecdd4c6d9fd819e7ce02a -->
<g id="edge3" class="edge">
<title>_40c452addb86544e9b40de1944b297b1161f8f5ce8439cbe319e678707c846f2&#45;&gt;_f2485448b322a450afac39060561a1ba5651db175a9ecdd4c6d9fd819e7ce02a</title>
<path fill="none" stroke="gray" stroke-dasharray="5,2" d="M349.81,-104.41C349.01,-92.76 347.92,-77.05 346.98,-63.52"/>
<polygon fill="gray" stroke="gray" points="350.49,-63.59 346.31,-53.86 343.51,-64.08 350.49,-63.59"/>
<text xml:space="preserve" text-anchor="middle" x="394.29" y="-73.2" font-family="Times,serif" font-size="14.00">owl:priorVersion</text>
</g>
<!-- _75f66095baa60592fcc7e97fa489026e7d6d757a63fd11c6624a34d06a3633b4 -->
<g id="node7" class="node">
<title>_75f66095baa60592fcc7e97fa489026e7d6d757a63fd11c6624a34d06a3633b4</title>
<polygon fill="none" stroke="black" points="528.5,-140.5 437.5,-140.5 437.5,-104.5 528.5,-104.5 528.5,-140.5"/>
<text xml:space="preserve" text-anchor="middle" x="483" y="-117.45" font-family="Times,serif" font-size="14.00">owl:Ontology</text>
</g>
<!-- _44a157d5fabe5bbf54dd1f384ccfb8f02ceba69069cdc8888499da1b7930714f -->
<g id="node8" class="node">
<title>_44a157d5fabe5bbf54dd1f384ccfb8f02ceba69069cdc8888499da1b7930714f</title>
<polygon fill="none" stroke="#9b9b9b" points="565.25,-52 430.75,-52 430.75,-16 565.25,-16 565.25,-52"/>
<text xml:space="preserve" text-anchor="middle" x="498" y="-28.95" font-family="Times,serif" font-size="14.00">owl:versionIRI object</text>
</g>
<!-- _75f66095baa60592fcc7e97fa489026e7d6d757a63fd11c6624a34d06a3633b4&#45;&gt;_44a157d5fabe5bbf54dd1f384ccfb8f02ceba69069cdc8888499da1b7930714f -->
<g id="edge4" class="edge">
<title>_75f66095baa60592fcc7e97fa489026e7d6d757a63fd11c6624a34d06a3633b4&#45;&gt;_44a157d5fabe5bbf54dd1f384ccfb8f02ceba69069cdc8888499da1b7930714f</title>
<path fill="none" stroke="gray" d="M485.96,-104.41C487.98,-92.76 490.71,-77.05 493.05,-63.52"/>
<polygon fill="gray" stroke="gray" points="496.47,-64.29 494.73,-53.84 489.58,-63.1 496.47,-64.29"/>
<text xml:space="preserve" text-anchor="middle" x="532.72" y="-73.2" font-family="Times,serif" font-size="14.00">owl:versionIRI</text>
</g>
<!-- _dc7a6d281f729cbeaa414a9670addb56912f2be036498ebf27c9d1ae3c2d462e -->
<g id="node9" class="node">
<title>_dc7a6d281f729cbeaa414a9670addb56912f2be036498ebf27c9d1ae3c2d462e</title>
<polygon fill="none" stroke="#9b9b9b" points="812.5,-52 583.5,-52 583.5,-16 812.5,-16 812.5,-52"/>
<text xml:space="preserve" text-anchor="middle" x="698" y="-28.95" font-family="Times,serif" font-size="14.00">IRI &#45; http://www.w3.org/ns/dx/prof/1.0</text>
</g>
<!-- _ef411fe8fcaa0f26fd6d42d8672c49f4527427890f7880833a41e98582cea353 -->
<g id="node10" class="node">
<title>_ef411fe8fcaa0f26fd6d42d8672c49f4527427890f7880833a41e98582cea353</title>
<polygon fill="none" stroke="#9b9b9b" points="1157.62,-52 830.38,-52 830.38,-16 1157.62,-16 1157.62,-52"/>
<text xml:space="preserve" text-anchor="middle" x="994" y="-28.95" font-family="Times,serif" font-size="14.00">IRI &#45; https://ontology.unifiedcyberontology.org/owl/1.4.0</text>
</g>
<!-- _104e7bcaa55bc08d018828107e55543f900143a3e9d6427d84e0e78a7797f13d -->
<g id="node11" class="node">
<title>_104e7bcaa55bc08d018828107e55543f900143a3e9d6427d84e0e78a7797f13d</title>
<polygon fill="none" stroke="black" points="802,-140.5 594,-140.5 594,-104.5 802,-104.5 802,-140.5"/>
<text xml:space="preserve" text-anchor="middle" x="698" y="-117.45" font-family="Times,serif" font-size="14.00">IRI &#45; http://www.w3.org/ns/dx/prof</text>
</g>
<!-- _104e7bcaa55bc08d018828107e55543f900143a3e9d6427d84e0e78a7797f13d&#45;&gt;_dc7a6d281f729cbeaa414a9670addb56912f2be036498ebf27c9d1ae3c2d462e -->
<g id="edge8" class="edge">
<title>_104e7bcaa55bc08d018828107e55543f900143a3e9d6427d84e0e78a7797f13d&#45;&gt;_dc7a6d281f729cbeaa414a9670addb56912f2be036498ebf27c9d1ae3c2d462e</title>
<path fill="none" stroke="gray" d="M698,-104.41C698,-92.76 698,-77.05 698,-63.52"/>
<polygon fill="gray" stroke="gray" points="701.5,-63.86 698,-53.86 694.5,-63.86 701.5,-63.86"/>
<text xml:space="preserve" text-anchor="middle" x="738.88" y="-73.2" font-family="Times,serif" font-size="14.00">owl:versionIRI</text>
</g>
<!-- _7e7fcdca06e527648f2f5f757451b77691e8c0694969f0d9bb23885f136d5618 -->
<g id="node12" class="node">
<title>_7e7fcdca06e527648f2f5f757451b77691e8c0694969f0d9bb23885f136d5618</title>
<polygon fill="none" stroke="black" points="1083.5,-140.5 854.5,-140.5 854.5,-104.5 1083.5,-104.5 1083.5,-140.5"/>
<text xml:space="preserve" text-anchor="middle" x="969" y="-117.45" font-family="Times,serif" font-size="14.00">IRI &#45; http://example.org/shapes/sh&#45;prof</text>
</g>
<!-- _7e7fcdca06e527648f2f5f757451b77691e8c0694969f0d9bb23885f136d5618&#45;&gt;_ef411fe8fcaa0f26fd6d42d8672c49f4527427890f7880833a41e98582cea353 -->
<g id="edge6" class="edge">
<title>_7e7fcdca06e527648f2f5f757451b77691e8c0694969f0d9bb23885f136d5618&#45;&gt;_ef411fe8fcaa0f26fd6d42d8672c49f4527427890f7880833a41e98582cea353</title>
<path fill="none" stroke="black" d="M973.94,-104.41C977.34,-92.64 981.94,-76.73 985.88,-63.11"/>
<polygon fill="none" stroke="black" points="989.15,-64.38 988.57,-53.8 982.43,-62.44 989.15,-64.38"/>
<text xml:space="preserve" text-anchor="middle" x="1016.74" y="-73.2" font-family="Times,serif" font-size="14.00">owl:imports</text>
</g>
<!-- _f2e5b02a171f32dd0a9863c360551d6757f93137b44a6a36e87bb072376e7351 -->
<g id="node13" class="node">
<title>_f2e5b02a171f32dd0a9863c360551d6757f93137b44a6a36e87bb072376e7351</title>
<polygon fill="none" stroke="black" points="1396.88,-140.5 1101.12,-140.5 1101.12,-104.5 1396.88,-104.5 1396.88,-140.5"/>
<text xml:space="preserve" text-anchor="middle" x="1249" y="-117.45" font-family="Times,serif" font-size="14.00">IRI &#45; https://ontology.unifiedcyberontology.org/owl</text>
</g>
<!-- _f2e5b02a171f32dd0a9863c360551d6757f93137b44a6a36e87bb072376e7351&#45;&gt;_ef411fe8fcaa0f26fd6d42d8672c49f4527427890f7880833a41e98582cea353 -->
<g id="edge9" class="edge">
<title>_f2e5b02a171f32dd0a9863c360551d6757f93137b44a6a36e87bb072376e7351&#45;&gt;_ef411fe8fcaa0f26fd6d42d8672c49f4527427890f7880833a41e98582cea353</title>
<path fill="none" stroke="gray" d="M1163.37,-104.03C1143.41,-99.11 1122.4,-93.23 1103.25,-86.5 1080.61,-78.54 1056.38,-67.41 1036.51,-57.53"/>
<polygon fill="gray" stroke="gray" points="1038.11,-54.41 1027.6,-53.03 1034.95,-60.66 1038.11,-54.41"/>
<text xml:space="preserve" text-anchor="middle" x="1144.12" y="-73.2" font-family="Times,serif" font-size="14.00">owl:versionIRI</text>
</g>
<!-- _b508e8baa7623798f008be32f495492f7eb379649447af7738f40d11b96a73ac -->
<g id="node14" class="node">
<title>_b508e8baa7623798f008be32f495492f7eb379649447af7738f40d11b96a73ac</title>
<polygon fill="none" stroke="black" points="1521.62,-52 1194.38,-52 1194.38,-16 1521.62,-16 1521.62,-52"/>
<text xml:space="preserve" text-anchor="middle" x="1358" y="-28.95" font-family="Times,serif" font-size="14.00">IRI &#45; https://ontology.unifiedcyberontology.org/owl/1.3.0</text>
</g>
<!-- _f2e5b02a171f32dd0a9863c360551d6757f93137b44a6a36e87bb072376e7351&#45;&gt;_b508e8baa7623798f008be32f495492f7eb379649447af7738f40d11b96a73ac -->
<g id="edge5" class="edge">
<title>_f2e5b02a171f32dd0a9863c360551d6757f93137b44a6a36e87bb072376e7351&#45;&gt;_b508e8baa7623798f008be32f495492f7eb379649447af7738f40d11b96a73ac</title>
<path fill="none" stroke="gray" stroke-dasharray="5,2" d="M1210.16,-104.02C1194.68,-94.63 1182.66,-82.45 1192.75,-70 1197.2,-64.51 1205.84,-59.84 1216.94,-55.88"/>
<polygon fill="gray" stroke="gray" points="1217.85,-59.27 1226.32,-52.9 1215.73,-52.59 1217.85,-59.27"/>
<text xml:space="preserve" text-anchor="middle" x="1276.38" y="-73.2" font-family="Times,serif" font-size="14.00">owl:backwardCompatibleWith</text>
</g>
<!-- _f2e5b02a171f32dd0a9863c360551d6757f93137b44a6a36e87bb072376e7351&#45;&gt;_b508e8baa7623798f008be32f495492f7eb379649447af7738f40d11b96a73ac -->
<g id="edge7" class="edge">
<title>_f2e5b02a171f32dd0a9863c360551d6757f93137b44a6a36e87bb072376e7351&#45;&gt;_b508e8baa7623798f008be32f495492f7eb379649447af7738f40d11b96a73ac</title>
<path fill="none" stroke="gray" stroke-dasharray="5,2" d="M1340.22,-104.15C1347.86,-99.54 1354.68,-93.75 1360,-86.5 1364.76,-80 1365.93,-71.71 1365.44,-63.68"/>
<polygon fill="gray" stroke="gray" points="1368.91,-63.23 1363.98,-53.85 1361.99,-64.25 1368.91,-63.23"/>
<text xml:space="preserve" text-anchor="middle" x="1411.09" y="-73.2" font-family="Times,serif" font-size="14.00">owl:priorVersion</text>
</g>
</g>
</svg>
