<?xml version="1.0" encoding="UTF-8" standalone="no"?>
<!DOCTYPE svg PUBLIC "-//W3C//DTD SVG 1.1//EN"
 "http://www.w3.org/Graphics/SVG/1.1/DTD/svg11.dtd">
<!-- Generated by graphviz version 14.1.5 (20260411.2331)
 -->
<!-- Title: G Pages: 1 -->
<svg width="1897pt" height="367pt"
 viewBox="0.00 0.00 1897.00 367.00" xmlns="http://www.w3.org/2000/svg" xmlns:xlink="http://www.w3.org/1999/xlink">
<g id="graph0" class="graph" transform="scale(1 1) rotate(0) translate(4 362.5)">
<title>G</title>
<polygon fill="white" stroke="none" points="-4,4 -4,-362.5 1893,-362.5 1893,4 -4,4"/>
<g id="clust1" class="cluster">
<title>cluster_legend</title>
<polygon fill="none" stroke="black" points="8,-169 8,-350.5 833,-350.5 833,-169 8,-169"/>
<text xml:space="preserve" text-anchor="middle" x="420.5" y="-333.2" font-family="Times,serif" font-size="14.00">Legend</text>
<text xml:space="preserve" text-anchor="middle" x="420.5" y="-316.7" font-family="Times,serif" font-size="14.00">Note: edges in legend only show most general applicability.</text>
</g>
<!-- _6be42d3db9cf20b926086b834a126e2c64aa8afeb6017f801e12d8e940b021d5 -->
<g id="node1" class="node">
<title>_6be42d3db9cf20b926086b834a126e2c64aa8afeb6017f801e12d8e940b021d5</title>
<polygon fill="none" stroke="black" points="100.12,-301.5 27.88,-301.5 27.88,-265.5 100.12,-265.5 100.12,-301.5"/>
<text xml:space="preserve" text-anchor="middle" x="64" y="-278.45" font-family="Times,serif" font-size="14.00">owl:Thing</text>
</g>
<!-- _cfbd84720b96d207f7d3ef32e86ab2451472ca207077c2bdb8581e452d8a663c -->
<g id="node2" class="node">
<title>_cfbd84720b96d207f7d3ef32e86ab2451472ca207077c2bdb8581e452d8a663c</title>
<polygon fill="none" stroke="black" points="121.62,-213 16.38,-213 16.38,-177 127.62,-177 127.62,-207 121.62,-213"/>
<polyline fill="none" stroke="black" points="121.62,-213 121.62,-207"/>
<polyline fill="none" stroke="black" points="127.62,-207 121.62,-207"/>
<text xml:space="preserve" text-anchor="middle" x="72" y="-189.95" font-family="Times,serif" font-size="14.00">dcterms:Standard</text>
</g>
<!-- _6be42d3db9cf20b926086b834a126e2c64aa8afeb6017f801e12d8e940b021d5&#45;&gt;_cfbd84720b96d207f7d3ef32e86ab2451472ca207077c2bdb8581e452d8a663c -->
<g id="edge1" class="edge">
<title>_6be42d3db9cf20b926086b834a126e2c64aa8afeb6017f801e12d8e940b021d5&#45;&gt;_cfbd84720b96d207f7d3ef32e86ab2451472ca207077c2bdb8581e452d8a663c</title>
<path fill="none" stroke="black" d="M63.57,-265.28C63.51,-255.25 63.76,-242.38 65,-231 65.23,-228.92 65.52,-226.78 65.85,-224.63"/>
<polygon fill="black" stroke="black" points="69.28,-225.31 67.62,-214.84 62.39,-224.05 69.28,-225.31"/>
<text xml:space="preserve" text-anchor="middle" x="122" y="-234.2" font-family="Times,serif" font-size="14.00">dcterms:conformsTo</text>
</g>
<!-- _d3ebcfee627862e24b4c02f95b40a1d414501a35de08d9433b9bc313593f226b -->
<g id="node3" class="node">
<title>_d3ebcfee627862e24b4c02f95b40a1d414501a35de08d9433b9bc313593f226b</title>
<polygon fill="none" stroke="black" points="246.5,-301.5 155.5,-301.5 155.5,-265.5 246.5,-265.5 246.5,-301.5"/>
<text xml:space="preserve" text-anchor="middle" x="201" y="-278.45" font-family="Times,serif" font-size="14.00">owl:Ontology</text>
</g>
<!-- _36453afe86e7e9240886243514581cd9093de1f7ebca250869cf581f3578a963 -->
<g id="node4" class="node">
<title>_36453afe86e7e9240886243514581cd9093de1f7ebca250869cf581f3578a963</title>
<polygon fill="none" stroke="#9b9b9b" points="280.25,-213 145.75,-213 145.75,-177 280.25,-177 280.25,-213"/>
<text xml:space="preserve" text-anchor="middle" x="213" y="-189.95" font-family="Times,serif" font-size="14.00">owl:versionIRI object</text>
</g>
<!-- _d3ebcfee627862e24b4c02f95b40a1d414501a35de08d9433b9bc313593f226b&#45;&gt;_36453afe86e7e9240886243514581cd9093de1f7ebca250869cf581f3578a963 -->
<g id="edge2" class="edge">
<title>_d3ebcfee627862e24b4c02f95b40a1d414501a35de08d9433b9bc313593f226b&#45;&gt;_36453afe86e7e9240886243514581cd9093de1f7ebca250869cf581f3578a963</title>
<path fill="none" stroke="gray" stroke-dasharray="5,2" d="M199.98,-265.22C199.71,-255.17 199.9,-242.29 201.75,-231 202.11,-228.78 202.59,-226.51 203.14,-224.24"/>
<polygon fill="gray" stroke="gray" points="206.5,-225.23 205.93,-214.65 199.78,-223.28 206.5,-225.23"/>
<text xml:space="preserve" text-anchor="middle" x="285.38" y="-234.2" font-family="Times,serif" font-size="14.00">owl:backwardCompatibleWith</text>
</g>
<!-- _dff2c21a2c6c4241453ba27c8017f28b476e1c237fe5224d565322ea299e6044 -->
<g id="node5" class="node">
<title>_dff2c21a2c6c4241453ba27c8017f28b476e1c237fe5224d565322ea299e6044</title>
<polygon fill="none" stroke="black" points="427.5,-301.5 336.5,-301.5 336.5,-265.5 427.5,-265.5 427.5,-301.5"/>
<text xml:space="preserve" text-anchor="middle" x="382" y="-278.45" font-family="Times,serif" font-size="14.00">owl:Ontology</text>
</g>
<!-- _017b8d0cbb5ff892223344da777a622e10a1fcc984f4a2c596609f45595f8a0f -->
<g id="node6" class="node">
<title>_017b8d0cbb5ff892223344da777a622e10a1fcc984f4a2c596609f45595f8a0f</title>
<polygon fill="none" stroke="black" points="389.5,-213 298.5,-213 298.5,-177 389.5,-177 389.5,-213"/>
<text xml:space="preserve" text-anchor="middle" x="344" y="-189.95" font-family="Times,serif" font-size="14.00">owl:Ontology</text>
</g>
<!-- _dff2c21a2c6c4241453ba27c8017f28b476e1c237fe5224d565322ea299e6044&#45;&gt;_017b8d0cbb5ff892223344da777a622e10a1fcc984f4a2c596609f45595f8a0f -->
<g id="edge3" class="edge">
<title>_dff2c21a2c6c4241453ba27c8017f28b476e1c237fe5224d565322ea299e6044&#45;&gt;_017b8d0cbb5ff892223344da777a622e10a1fcc984f4a2c596609f45595f8a0f</title>
<path fill="none" stroke="black" d="M379.31,-265.26C377.31,-254.99 374.04,-241.88 369,-231 367.72,-228.24 366.21,-225.47 364.59,-222.76"/>
<polygon fill="none" stroke="black" points="367.63,-221.02 359.18,-214.63 361.8,-224.9 367.63,-221.02"/>
<text xml:space="preserve" text-anchor="middle" x="408.01" y="-234.2" font-family="Times,serif" font-size="14.00">owl:imports</text>
</g>
<!-- _40c452addb86544e9b40de1944b297b1161f8f5ce8439cbe319e678707c846f2 -->
<g id="node7" class="node">
<title>_40c452addb86544e9b40de1944b297b1161f8f5ce8439cbe319e678707c846f2</title>
<polygon fill="none" stroke="black" points="536.5,-301.5 445.5,-301.5 445.5,-265.5 536.5,-265.5 536.5,-301.5"/>
<text xml:space="preserve" text-anchor="middle" x="491" y="-278.45" font-family="Times,serif" font-size="14.00">owl:Ontology</text>
</g>
<!-- _f2485448b322a450afac39060561a1ba5651db175a9ecdd4c6d9fd819e7ce02a -->
<g id="node8" class="node">
<title>_f2485448b322a450afac39060561a1ba5651db175a9ecdd4c6d9fd819e7ce02a</title>
<polygon fill="none" stroke="#9b9b9b" points="542.25,-213 407.75,-213 407.75,-177 542.25,-177 542.25,-213"/>
<text xml:space="preserve" text-anchor="middle" x="475" y="-189.95" font-family="Times,serif" font-size="14.00">owl:versionIRI object</text>
</g>
<!-- _40c452addb86544e9b40de1944b297b1161f8f5ce8439cbe319e678707c846f2&#45;&gt;_f2485448b322a450afac39060561a1ba5651db175a9ecdd4c6d9fd819e7ce02a -->
<g id="edge4" class="edge">
<title>_40c452addb86544e9b40de1944b297b1161f8f5ce8439cbe319e678707c846f2&#45;&gt;_f2485448b322a450afac39060561a1ba5651db175a9ecdd4c6d9fd819e7ce02a</title>
<path fill="none" stroke="gray" stroke-dasharray="5,2" d="M487.84,-265.41C485.68,-253.76 482.78,-238.05 480.28,-224.52"/>
<polygon fill="gray" stroke="gray" points="483.75,-224.04 478.48,-214.84 476.86,-225.31 483.75,-224.04"/>
<text xml:space="preserve" text-anchor="middle" x="530.18" y="-234.2" font-family="Times,serif" font-size="14.00">owl:priorVersion</text>
</g>
<!-- _75f66095baa60592fcc7e97fa489026e7d6d757a63fd11c6624a34d06a3633b4 -->
<g id="node9" class="node">
<title>_75f66095baa60592fcc7e97fa489026e7d6d757a63fd11c6624a34d06a3633b4</title>
<polygon fill="none" stroke="black" points="673.5,-301.5 582.5,-301.5 582.5,-265.5 673.5,-265.5 673.5,-301.5"/>
<text xml:space="preserve" text-anchor="middle" x="628" y="-278.45" font-family="Times,serif" font-size="14.00">owl:Ontology</text>
</g>
<!-- _44a157d5fabe5bbf54dd1f384ccfb8f02ceba69069cdc8888499da1b7930714f -->
<g id="node10" class="node">
<title>_44a157d5fabe5bbf54dd1f384ccfb8f02ceba69069cdc8888499da1b7930714f</title>
<polygon fill="none" stroke="#9b9b9b" points="695.25,-213 560.75,-213 560.75,-177 695.25,-177 695.25,-213"/>
<text xml:space="preserve" text-anchor="middle" x="628" y="-189.95" font-family="Times,serif" font-size="14.00">owl:versionIRI object</text>
</g>
<!-- _75f66095baa60592fcc7e97fa489026e7d6d757a63fd11c6624a34d06a3633b4&#45;&gt;_44a157d5fabe5bbf54dd1f384ccfb8f02ceba69069cdc8888499da1b7930714f -->
<g id="edge5" class="edge">
<title>_75f66095baa60592fcc7e97fa489026e7d6d757a63fd11c6624a34d06a3633b4&#45;&gt;_44a157d5fabe5bbf54dd1f384ccfb8f02ceba69069cdc8888499da1b7930714f</title>
<path fill="none" stroke="gray" d="M628,-265.41C628,-253.76 628,-238.05 628,-224.52"/>
<polygon fill="gray" stroke="gray" points="631.5,-224.86 628,-214.86 624.5,-224.86 631.5,-224.86"/>
<text xml:space="preserve" text-anchor="middle" x="668.88" y="-234.2" font-family="Times,serif" font-size="14.00">owl:versionIRI</text>
</g>
<!-- _98e8856b3f61d9865cc05c9747a4bfc52a3d58baaf797c31ee80a7df9b92ed57 -->
<g id="node11" class="node">
<title>_98e8856b3f61d9865cc05c9747a4bfc52a3d58baaf797c31ee80a7df9b92ed57</title>
<polygon fill="#9b9b9b" stroke="black" points="778.5,-301.5 699.5,-301.5 699.5,-265.5 778.5,-265.5 778.5,-301.5"/>
<text xml:space="preserve" text-anchor="middle" x="739" y="-278.45" font-family="Times,serif" font-size="14.00">prof:Profile</text>
</g>
<!-- _07166cd5e228fb7ddf859e561327ce51f60071d1183187816b22c1a8ccd0726f -->
<g id="node12" class="node">
<title>_07166cd5e228fb7ddf859e561327ce51f60071d1183187816b22c1a8ccd0726f</title>
<polygon fill="none" stroke="black" points="818.62,-213 713.38,-213 713.38,-177 824.62,-177 824.62,-207 818.62,-213"/>
<polyline fill="none" stroke="black" points="818.62,-213 818.62,-207"/>
<polyline fill="none" stroke="black" points="824.62,-207 818.62,-207"/>
<text xml:space="preserve" text-anchor="middle" x="769" y="-189.95" font-family="Times,serif" font-size="14.00">dcterms:Standard</text>
</g>
<!-- _98e8856b3f61d9865cc05c9747a4bfc52a3d58baaf797c31ee80a7df9b92ed57&#45;&gt;_07166cd5e228fb7ddf859e561327ce51f60071d1183187816b22c1a8ccd0726f -->
<g id="edge6" class="edge">
<title>_98e8856b3f61d9865cc05c9747a4bfc52a3d58baaf797c31ee80a7df9b92ed57&#45;&gt;_07166cd5e228fb7ddf859e561327ce51f60071d1183187816b22c1a8ccd0726f</title>
<path fill="none" stroke="black" d="M744.93,-265.41C749.05,-253.52 754.64,-237.41 759.39,-223.7"/>
<polygon fill="black" stroke="black" points="762.58,-214.5 763.56,-225.42 761.34,-218.07 759.31,-223.95 759.31,-223.95 759.31,-223.95 761.34,-218.07 755.05,-222.47 762.58,-214.5"/>
<text xml:space="preserve" text-anchor="middle" x="799.81" y="-234.2" font-family="Times,serif" font-size="14.00">prof:isProfileOf</text>
</g>
<!-- _dc7a6d281f729cbeaa414a9670addb56912f2be036498ebf27c9d1ae3c2d462e -->
<g id="node13" class="node">
<title>_dc7a6d281f729cbeaa414a9670addb56912f2be036498ebf27c9d1ae3c2d462e</title>
<polygon fill="none" stroke="#9b9b9b" points="1681.5,-213 1452.5,-213 1452.5,-177 1681.5,-177 1681.5,-213"/>
<text xml:space="preserve" text-anchor="middle" x="1567" y="-189.95" font-family="Times,serif" font-size="14.00">IRI &#45; http://www.w3.org/ns/dx/prof/1.0</text>
</g>
<!-- _ef411fe8fcaa0f26fd6d42d8672c49f4527427890f7880833a41e98582cea353 -->
<g id="node14" class="node">
<title>_ef411fe8fcaa0f26fd6d42d8672c49f4527427890f7880833a41e98582cea353</title>
<polygon fill="none" stroke="#9b9b9b" points="1016.62,-124.5 689.38,-124.5 689.38,-88.5 1016.62,-88.5 1016.62,-124.5"/>
<text xml:space="preserve" text-anchor="middle" x="853" y="-101.45" font-family="Times,serif" font-size="14.00">IRI &#45; https://ontology.unifiedcyberontology.org/owl/1.4.0</text>
</g>
<!-- _f2e5b02a171f32dd0a9863c360551d6757f93137b44a6a36e87bb072376e7351 -->
<g id="node15" class="node">
<title>_f2e5b02a171f32dd0a9863c360551d6757f93137b44a6a36e87bb072376e7351</title>
<polygon fill="none" stroke="black" points="1434.88,-213 1139.12,-213 1139.12,-177 1434.88,-177 1434.88,-213"/>
<text xml:space="preserve" text-anchor="middle" x="1287" y="-189.95" font-family="Times,serif" font-size="14.00">IRI &#45; https://ontology.unifiedcyberontology.org/owl</text>
</g>
<!-- _f2e5b02a171f32dd0a9863c360551d6757f93137b44a6a36e87bb072376e7351&#45;&gt;_ef411fe8fcaa0f26fd6d42d8672c49f4527427890f7880833a41e98582cea353 -->
<g id="edge15" class="edge">
<title>_f2e5b02a171f32dd0a9863c360551d6757f93137b44a6a36e87bb072376e7351&#45;&gt;_ef411fe8fcaa0f26fd6d42d8672c49f4527427890f7880833a41e98582cea353</title>
<path fill="none" stroke="gray" d="M1149.72,-176.52C1131.03,-171.97 1112.4,-166.23 1095.25,-159 1083.57,-154.08 1083.73,-147.29 1072,-142.5 1057.59,-136.61 1042.27,-131.71 1026.69,-127.64"/>
<polygon fill="gray" stroke="gray" points="1027.89,-124.33 1017.34,-125.31 1026.2,-131.12 1027.89,-124.33"/>
<text xml:space="preserve" text-anchor="middle" x="1136.12" y="-145.7" font-family="Times,serif" font-size="14.00">owl:versionIRI</text>
</g>
<!-- _7f0b776cae8d16592c6d9e8962113c57c870f93eb5e6441397193fadbaa27336 -->
<g id="node17" class="node">
<title>_7f0b776cae8d16592c6d9e8962113c57c870f93eb5e6441397193fadbaa27336</title>
<polygon fill="#9b9b9b" stroke="black" points="1889,-124.5 1633,-124.5 1633,-88.5 1889,-88.5 1889,-124.5"/>
<text xml:space="preserve" text-anchor="middle" x="1761" y="-101.45" font-family="Times,serif" font-size="14.00">IRI &#45; https://www.w3.org/ns/owl&#45;profile/DL</text>
</g>
<!-- _f2e5b02a171f32dd0a9863c360551d6757f93137b44a6a36e87bb072376e7351&#45;&gt;_7f0b776cae8d16592c6d9e8962113c57c870f93eb5e6441397193fadbaa27336 -->
<g id="edge16" class="edge">
<title>_f2e5b02a171f32dd0a9863c360551d6757f93137b44a6a36e87bb072376e7351&#45;&gt;_7f0b776cae8d16592c6d9e8962113c57c870f93eb5e6441397193fadbaa27336</title>
<path fill="none" stroke="black" d="M1387.31,-176.52C1406.1,-173.67 1425.62,-171.01 1444,-169 1518.36,-160.89 1538.64,-173.58 1612,-159 1645.59,-152.33 1681.94,-139.87 1710.33,-128.88"/>
<polygon fill="black" stroke="black" points="1719.28,-125.36 1711.62,-133.21 1715.76,-126.75 1709.97,-129.02 1709.97,-129.02 1709.97,-129.02 1715.76,-126.75 1708.32,-124.84 1719.28,-125.36"/>
<text xml:space="preserve" text-anchor="middle" x="1713.55" y="-145.7" font-family="Times,serif" font-size="14.00">prof:isProfileOf</text>
</g>
<!-- _627e9c1735622e528062db7287b981f4013f21bbee8eff189433c048089ba284 -->
<g id="node18" class="node">
<title>_627e9c1735622e528062db7287b981f4013f21bbee8eff189433c048089ba284</title>
<polygon fill="#9b9b9b" stroke="black" points="1269.5,-124.5 1034.5,-124.5 1034.5,-88.5 1269.5,-88.5 1269.5,-124.5"/>
<text xml:space="preserve" text-anchor="middle" x="1152" y="-101.45" font-family="Times,serif" font-size="14.00">IRI &#45; http://www.w3.org/ns/shacl&#45;shacl#</text>
</g>
<!-- _f2e5b02a171f32dd0a9863c360551d6757f93137b44a6a36e87bb072376e7351&#45;&gt;_627e9c1735622e528062db7287b981f4013f21bbee8eff189433c048089ba284 -->
<g id="edge8" class="edge">
<title>_f2e5b02a171f32dd0a9863c360551d6757f93137b44a6a36e87bb072376e7351&#45;&gt;_627e9c1735622e528062db7287b981f4013f21bbee8eff189433c048089ba284</title>
<path fill="none" stroke="black" d="M1233.12,-176.61C1221.7,-171.78 1210.07,-165.91 1200,-159 1189.72,-151.95 1180.01,-142.34 1172.05,-133.33"/>
<polygon fill="black" stroke="black" points="1174.82,-131.18 1165.7,-125.8 1169.47,-135.69 1174.82,-131.18"/>
<text xml:space="preserve" text-anchor="middle" x="1257" y="-145.7" font-family="Times,serif" font-size="14.00">dcterms:conformsTo</text>
</g>
<!-- _b508e8baa7623798f008be32f495492f7eb379649447af7738f40d11b96a73ac -->
<g id="node21" class="node">
<title>_b508e8baa7623798f008be32f495492f7eb379649447af7738f40d11b96a73ac</title>
<polygon fill="none" stroke="black" points="1614.62,-124.5 1287.38,-124.5 1287.38,-88.5 1614.62,-88.5 1614.62,-124.5"/>
<text xml:space="preserve" text-anchor="middle" x="1451" y="-101.45" font-family="Times,serif" font-size="14.00">IRI &#45; https://ontology.unifiedcyberontology.org/owl/1.3.0</text>
</g>
<!-- _f2e5b02a171f32dd0a9863c360551d6757f93137b44a6a36e87bb072376e7351&#45;&gt;_b508e8baa7623798f008be32f495492f7eb379649447af7738f40d11b96a73ac -->
<g id="edge10" class="edge">
<title>_f2e5b02a171f32dd0a9863c360551d6757f93137b44a6a36e87bb072376e7351&#45;&gt;_b508e8baa7623798f008be32f495492f7eb379649447af7738f40d11b96a73ac</title>
<path fill="none" stroke="gray" stroke-dasharray="5,2" d="M1400.34,-176.63C1410.71,-172.02 1420.49,-166.23 1429,-159 1436.11,-152.96 1440.98,-144.21 1444.29,-135.63"/>
<polygon fill="gray" stroke="gray" points="1447.61,-136.73 1447.34,-126.14 1440.95,-134.59 1447.61,-136.73"/>
<text xml:space="preserve" text-anchor="middle" x="1524.41" y="-145.7" font-family="Times,serif" font-size="14.00">owl:backwardCompatibleWith</text>
</g>
<!-- _f2e5b02a171f32dd0a9863c360551d6757f93137b44a6a36e87bb072376e7351&#45;&gt;_b508e8baa7623798f008be32f495492f7eb379649447af7738f40d11b96a73ac -->
<g id="edge13" class="edge">
<title>_f2e5b02a171f32dd0a9863c360551d6757f93137b44a6a36e87bb072376e7351&#45;&gt;_b508e8baa7623798f008be32f495492f7eb379649447af7738f40d11b96a73ac</title>
<path fill="none" stroke="gray" stroke-dasharray="5,2" d="M1301.04,-176.51C1311.79,-163.5 1326.01,-147.23 1333.5,-142.5 1341.74,-137.3 1350.79,-132.84 1360.1,-129.02"/>
<polygon fill="gray" stroke="gray" points="1361.17,-132.36 1369.27,-125.52 1358.68,-125.82 1361.17,-132.36"/>
<text xml:space="preserve" text-anchor="middle" x="1379.25" y="-145.7" font-family="Times,serif" font-size="14.00">owl:priorVersion</text>
</g>
<!-- _7e7fcdca06e527648f2f5f757451b77691e8c0694969f0d9bb23885f136d5618 -->
<g id="node16" class="node">
<title>_7e7fcdca06e527648f2f5f757451b77691e8c0694969f0d9bb23885f136d5618</title>
<polygon fill="none" stroke="black" points="1071.5,-213 842.5,-213 842.5,-177 1071.5,-177 1071.5,-213"/>
<text xml:space="preserve" text-anchor="middle" x="957" y="-189.95" font-family="Times,serif" font-size="14.00">IRI &#45; http://example.org/shapes/sh&#45;prof</text>
</g>
<!-- _7e7fcdca06e527648f2f5f757451b77691e8c0694969f0d9bb23885f136d5618&#45;&gt;_ef411fe8fcaa0f26fd6d42d8672c49f4527427890f7880833a41e98582cea353 -->
<g id="edge12" class="edge">
<title>_7e7fcdca06e527648f2f5f757451b77691e8c0694969f0d9bb23885f136d5618&#45;&gt;_ef411fe8fcaa0f26fd6d42d8672c49f4527427890f7880833a41e98582cea353</title>
<path fill="none" stroke="black" d="M893.02,-176.6C884.09,-172.01 875.7,-166.24 869,-159 863.05,-152.58 859.32,-143.97 856.97,-135.64"/>
<polygon fill="none" stroke="black" points="860.45,-135.17 854.88,-126.16 853.61,-136.68 860.45,-135.17"/>
<text xml:space="preserve" text-anchor="middle" x="902" y="-145.7" font-family="Times,serif" font-size="14.00">owl:imports</text>
</g>
<!-- _7e7fcdca06e527648f2f5f757451b77691e8c0694969f0d9bb23885f136d5618&#45;&gt;_627e9c1735622e528062db7287b981f4013f21bbee8eff189433c048089ba284 -->
<g id="edge9" class="edge">
<title>_7e7fcdca06e527648f2f5f757451b77691e8c0694969f0d9bb23885f136d5618&#45;&gt;_627e9c1735622e528062db7287b981f4013f21bbee8eff189433c048089ba284</title>
<path fill="none" stroke="black" d="M952.25,-176.76C950.32,-165.71 950.11,-151.76 958,-142.5 960.79,-139.22 991.34,-133.12 1027.41,-126.91"/>
<polygon fill="black" stroke="black" points="1027.99,-130.37 1037.26,-125.24 1026.82,-123.46 1027.99,-130.37"/>
<text xml:space="preserve" text-anchor="middle" x="1015" y="-145.7" font-family="Times,serif" font-size="14.00">dcterms:conformsTo</text>
</g>
<!-- _21f31b9aca886546c72fb466117bc537f0b6af676684d8317e31cfb6143036f6 -->
<g id="node22" class="node">
<title>_21f31b9aca886546c72fb466117bc537f0b6af676684d8317e31cfb6143036f6</title>
<polygon fill="none" stroke="black" points="1874.75,-36 1647.25,-36 1647.25,0 1874.75,0 1874.75,-36"/>
<text xml:space="preserve" text-anchor="middle" x="1761" y="-12.95" font-family="Times,serif" font-size="14.00">IRI &#45; http://www.w3.org/2002/07/owl#</text>
</g>
<!-- _7f0b776cae8d16592c6d9e8962113c57c870f93eb5e6441397193fadbaa27336&#45;&gt;_21f31b9aca886546c72fb466117bc537f0b6af676684d8317e31cfb6143036f6 -->
<g id="edge17" class="edge">
<title>_7f0b776cae8d16592c6d9e8962113c57c870f93eb5e6441397193fadbaa27336&#45;&gt;_21f31b9aca886546c72fb466117bc537f0b6af676684d8317e31cfb6143036f6</title>
<path fill="none" stroke="black" d="M1761,-88.41C1761,-76.76 1761,-61.05 1761,-47.52"/>
<polygon fill="black" stroke="black" points="1761,-37.57 1765.5,-47.57 1761,-41.35 1761,-47.57 1761,-47.57 1761,-47.57 1761,-41.35 1756.5,-47.57 1761,-37.57"/>
<text xml:space="preserve" text-anchor="middle" x="1804.12" y="-57.2" font-family="Times,serif" font-size="14.00">prof:isProfileOf</text>
</g>
<!-- _ed609b0ec0a592c761c42be25b554fa3cdebd02d3207994d77b68a08b4a4ebd7 -->
<g id="node23" class="node">
<title>_ed609b0ec0a592c761c42be25b554fa3cdebd02d3207994d77b68a08b4a4ebd7</title>
<polygon fill="none" stroke="black" points="1253.38,-36 1050.62,-36 1050.62,0 1253.38,0 1253.38,-36"/>
<text xml:space="preserve" text-anchor="middle" x="1152" y="-12.95" font-family="Times,serif" font-size="14.00">IRI &#45; http://www.w3.org/ns/shacl#</text>
</g>
<!-- _627e9c1735622e528062db7287b981f4013f21bbee8eff189433c048089ba284&#45;&gt;_ed609b0ec0a592c761c42be25b554fa3cdebd02d3207994d77b68a08b4a4ebd7 -->
<g id="edge18" class="edge">
<title>_627e9c1735622e528062db7287b981f4013f21bbee8eff189433c048089ba284&#45;&gt;_ed609b0ec0a592c761c42be25b554fa3cdebd02d3207994d77b68a08b4a4ebd7</title>
<path fill="none" stroke="black" d="M1152,-88.41C1152,-76.76 1152,-61.05 1152,-47.52"/>
<polygon fill="black" stroke="black" points="1152,-37.57 1156.5,-47.57 1152,-41.35 1152,-47.57 1152,-47.57 1152,-47.57 1152,-41.35 1147.5,-47.57 1152,-37.57"/>
<text xml:space="preserve" text-anchor="middle" x="1195.12" y="-57.2" font-family="Times,serif" font-size="14.00">prof:isProfileOf</text>
</g>
<!-- _c7f3d2538524bd8575cde368ba1de43430b3acf816e7c430a3ab938efef654ad -->
<g id="node19" class="node">
<title>_c7f3d2538524bd8575cde368ba1de43430b3acf816e7c430a3ab938efef654ad</title>
<polygon fill="none" stroke="black" points="1243.25,-301.5 994.75,-301.5 994.75,-265.5 1243.25,-265.5 1243.25,-301.5"/>
<text xml:space="preserve" text-anchor="middle" x="1119" y="-278.45" font-family="Times,serif" font-size="14.00">IRI &#45; http://example.org/ontology/cdo&#45;prof</text>
</g>
<!-- _c7f3d2538524bd8575cde368ba1de43430b3acf816e7c430a3ab938efef654ad&#45;&gt;_dc7a6d281f729cbeaa414a9670addb56912f2be036498ebf27c9d1ae3c2d462e -->
<g id="edge11" class="edge">
<title>_c7f3d2538524bd8575cde368ba1de43430b3acf816e7c430a3ab938efef654ad&#45;&gt;_dc7a6d281f729cbeaa414a9670addb56912f2be036498ebf27c9d1ae3c2d462e</title>
<path fill="none" stroke="black" d="M1209.39,-265.05C1283.45,-250.75 1388.21,-230.52 1465.21,-215.65"/>
<polygon fill="none" stroke="black" points="1465.72,-219.12 1474.88,-213.79 1464.4,-212.25 1465.72,-219.12"/>
<text xml:space="preserve" text-anchor="middle" x="1416.13" y="-234.2" font-family="Times,serif" font-size="14.00">owl:imports</text>
</g>
<!-- _c7f3d2538524bd8575cde368ba1de43430b3acf816e7c430a3ab938efef654ad&#45;&gt;_7e7fcdca06e527648f2f5f757451b77691e8c0694969f0d9bb23885f136d5618 -->
<g id="edge7" class="edge">
<title>_c7f3d2538524bd8575cde368ba1de43430b3acf816e7c430a3ab938efef654ad&#45;&gt;_7e7fcdca06e527648f2f5f757451b77691e8c0694969f0d9bb23885f136d5618</title>
<path fill="none" stroke="black" d="M1086.61,-265.2C1061.63,-251.87 1026.88,-233.31 999.65,-218.77"/>
<polygon fill="black" stroke="black" points="1001.42,-215.75 990.95,-214.13 998.12,-221.93 1001.42,-215.75"/>
<text xml:space="preserve" text-anchor="middle" x="1109.51" y="-234.2" font-family="Times,serif" font-size="14.00">dcterms:conformsTo</text>
</g>
<!-- _104e7bcaa55bc08d018828107e55543f900143a3e9d6427d84e0e78a7797f13d -->
<g id="node20" class="node">
<title>_104e7bcaa55bc08d018828107e55543f900143a3e9d6427d84e0e78a7797f13d</title>
<polygon fill="none" stroke="black" points="1671,-301.5 1463,-301.5 1463,-265.5 1671,-265.5 1671,-301.5"/>
<text xml:space="preserve" text-anchor="middle" x="1567" y="-278.45" font-family="Times,serif" font-size="14.00">IRI &#45; http://www.w3.org/ns/dx/prof</text>
</g>
<!-- _104e7bcaa55bc08d018828107e55543f900143a3e9d6427d84e0e78a7797f13d&#45;&gt;_dc7a6d281f729cbeaa414a9670addb56912f2be036498ebf27c9d1ae3c2d462e -->
<g id="edge14" class="edge">
<title>_104e7bcaa55bc08d018828107e55543f900143a3e9d6427d84e0e78a7797f13d&#45;&gt;_dc7a6d281f729cbeaa414a9670addb56912f2be036498ebf27c9d1ae3c2d462e</title>
<path fill="none" stroke="gray" d="M1567,-265.41C1567,-253.76 1567,-238.05 1567,-224.52"/>
<polygon fill="gray" stroke="gray" points="1570.5,-224.86 1567,-214.86 1563.5,-224.86 1570.5,-224.86"/>
<text xml:space="preserve" text-anchor="middle" x="1607.88" y="-234.2" font-family="Times,serif" font-size="14.00">owl:versionIRI</text>
</g>
</g>
</svg>
