<?xml version="1.0" encoding="UTF-8" standalone="no"?>
<!DOCTYPE svg PUBLIC "-//W3C//DTD SVG 1.1//EN"
 "http://www.w3.org/Graphics/SVG/1.1/DTD/svg11.dtd">
<!-- Generated by graphviz version 14.1.5 (20260411.2331)
 -->
<!-- Title: G Pages: 1 -->
<svg width="1564pt" height="278pt"
 viewBox="0.00 0.00 1564.00 278.00" xmlns="http://www.w3.org/2000/svg" xmlns:xlink="http://www.w3.org/1999/xlink">
<g id="graph0" class="graph" transform="scale(1 1) rotate(0) translate(4 274)">
<title>G</title>
<polygon fill="white" stroke="none" points="-4,4 -4,-274 1559.62,-274 1559.62,4 -4,4"/>
<g id="clust1" class="cluster">
<title>cluster_legend</title>
<polygon fill="none" stroke="black" points="8,-80.5 8,-262 703,-262 703,-80.5 8,-80.5"/>
<text xml:space="preserve" text-anchor="middle" x="355.5" y="-244.7" font-family="Times,serif" font-size="14.00">Legend</text>
<text xml:space="preserve" text-anchor="middle" x="355.5" y="-228.2" font-family="Times,serif" font-size="14.00">Note: edges in legend only show most general applicability.</text>
</g>
<!-- _6be42d3db9cf20b926086b834a126e2c64aa8afeb6017f801e12d8e940b021d5 -->
<g id="node1" class="node">
<title>_6be42d3db9cf20b926086b834a126e2c64aa8afeb6017f801e12d8e940b021d5</title>
<polygon fill="none" stroke="black" points="100.12,-213 27.88,-213 27.88,-177 100.12,-177 100.12,-213"/>
<text xml:space="preserve" text-anchor="middle" x="64" y="-189.95" font-family="Times,serif" font-size="14.00">owl:Thing</text>
</g>
<!-- _cfbd84720b96d207f7d3ef32e86ab2451472ca207077c2bdb8581e452d8a663c -->
<g id="node2" class="node">
<title>_cfbd84720b96d207f7d3ef32e86ab2451472ca207077c2bdb8581e452d8a663c</title>
<polygon fill="none" stroke="black" points="121.62,-124.5 16.38,-124.5 16.38,-88.5 127.62,-88.5 127.62,-118.5 121.62,-124.5"/>
<polyline fill="none" stroke="black" points="121.62,-124.5 121.62,-118.5"/>
<polyline fill="none" stroke="black" points="127.62,-118.5 121.62,-118.5"/>
<text xml:space="preserve" text-anchor="middle" x="72" y="-101.45" font-family="Times,serif" font-size="14.00">dcterms:Standard</text>
</g>
<!-- _6be42d3db9cf20b926086b834a126e2c64aa8afeb6017f801e12d8e940b021d5&#45;&gt;_cfbd84720b96d207f7d3ef32e86ab2451472ca207077c2bdb8581e452d8a663c -->
<g id="edge1" class="edge">
<title>_6be42d3db9cf20b926086b834a126e2c64aa8afeb6017f801e12d8e940b021d5&#45;&gt;_cfbd84720b96d207f7d3ef32e86ab2451472ca207077c2bdb8581e452d8a663c</title>
<path fill="none" stroke="black" d="M63.57,-176.78C63.51,-166.75 63.76,-153.88 65,-142.5 65.23,-140.42 65.52,-138.28 65.85,-136.13"/>
<polygon fill="black" stroke="black" points="69.28,-136.81 67.62,-126.34 62.39,-135.55 69.28,-136.81"/>
<text xml:space="preserve" text-anchor="middle" x="122" y="-145.7" font-family="Times,serif" font-size="14.00">dcterms:conformsTo</text>
</g>
<!-- _d3ebcfee627862e24b4c02f95b40a1d414501a35de08d9433b9bc313593f226b -->
<g id="node3" class="node">
<title>_d3ebcfee627862e24b4c02f95b40a1d414501a35de08d9433b9bc313593f226b</title>
<polygon fill="none" stroke="black" points="246.5,-213 155.5,-213 155.5,-177 246.5,-177 246.5,-213"/>
<text xml:space="preserve" text-anchor="middle" x="201" y="-189.95" font-family="Times,serif" font-size="14.00">owl:Ontology</text>
</g>
<!-- _36453afe86e7e9240886243514581cd9093de1f7ebca250869cf581f3578a963 -->
<g id="node4" class="node">
<title>_36453afe86e7e9240886243514581cd9093de1f7ebca250869cf581f3578a963</title>
<polygon fill="none" stroke="#9b9b9b" points="280.25,-124.5 145.75,-124.5 145.75,-88.5 280.25,-88.5 280.25,-124.5"/>
<text xml:space="preserve" text-anchor="middle" x="213" y="-101.45" font-family="Times,serif" font-size="14.00">owl:versionIRI object</text>
</g>
<!-- _d3ebcfee627862e24b4c02f95b40a1d414501a35de08d9433b9bc313593f226b&#45;&gt;_36453afe86e7e9240886243514581cd9093de1f7ebca250869cf581f3578a963 -->
<g id="edge2" class="edge">
<title>_d3ebcfee627862e24b4c02f95b40a1d414501a35de08d9433b9bc313593f226b&#45;&gt;_36453afe86e7e9240886243514581cd9093de1f7ebca250869cf581f3578a963</title>
<path fill="none" stroke="gray" stroke-dasharray="5,2" d="M199.98,-176.72C199.71,-166.67 199.9,-153.79 201.75,-142.5 202.11,-140.28 202.59,-138.01 203.14,-135.74"/>
<polygon fill="gray" stroke="gray" points="206.5,-136.73 205.93,-126.15 199.78,-134.78 206.5,-136.73"/>
<text xml:space="preserve" text-anchor="middle" x="285.38" y="-145.7" font-family="Times,serif" font-size="14.00">owl:backwardCompatibleWith</text>
</g>
<!-- _dff2c21a2c6c4241453ba27c8017f28b476e1c237fe5224d565322ea299e6044 -->
<g id="node5" class="node">
<title>_dff2c21a2c6c4241453ba27c8017f28b476e1c237fe5224d565322ea299e6044</title>
<polygon fill="none" stroke="black" points="427.5,-213 336.5,-213 336.5,-177 427.5,-177 427.5,-213"/>
<text xml:space="preserve" text-anchor="middle" x="382" y="-189.95" font-family="Times,serif" font-size="14.00">owl:Ontology</text>
</g>
<!-- _017b8d0cbb5ff892223344da777a622e10a1fcc984f4a2c596609f45595f8a0f -->
<g id="node6" class="node">
<title>_017b8d0cbb5ff892223344da777a622e10a1fcc984f4a2c596609f45595f8a0f</title>
<polygon fill="none" stroke="black" points="389.5,-124.5 298.5,-124.5 298.5,-88.5 389.5,-88.5 389.5,-124.5"/>
<text xml:space="preserve" text-anchor="middle" x="344" y="-101.45" font-family="Times,serif" font-size="14.00">owl:Ontology</text>
</g>
<!-- _dff2c21a2c6c4241453ba27c8017f28b476e1c237fe5224d565322ea299e6044&#45;&gt;_017b8d0cbb5ff892223344da777a622e10a1fcc984f4a2c596609f45595f8a0f -->
<g id="edge3" class="edge">
<title>_dff2c21a2c6c4241453ba27c8017f28b476e1c237fe5224d565322ea299e6044&#45;&gt;_017b8d0cbb5ff892223344da777a622e10a1fcc984f4a2c596609f45595f8a0f</title>
<path fill="none" stroke="black" d="M379.31,-176.76C377.31,-166.49 374.04,-153.38 369,-142.5 367.72,-139.74 366.21,-136.97 364.59,-134.26"/>
<polygon fill="none" stroke="black" points="367.63,-132.52 359.18,-126.13 361.8,-136.4 367.63,-132.52"/>
<text xml:space="preserve" text-anchor="middle" x="408.01" y="-145.7" font-family="Times,serif" font-size="14.00">owl:imports</text>
</g>
<!-- _40c452addb86544e9b40de1944b297b1161f8f5ce8439cbe319e678707c846f2 -->
<g id="node7" class="node">
<title>_40c452addb86544e9b40de1944b297b1161f8f5ce8439cbe319e678707c846f2</title>
<polygon fill="none" stroke="black" points="536.5,-213 445.5,-213 445.5,-177 536.5,-177 536.5,-213"/>
<text xml:space="preserve" text-anchor="middle" x="491" y="-189.95" font-family="Times,serif" font-size="14.00">owl:Ontology</text>
</g>
<!-- _f2485448b322a450afac39060561a1ba5651db175a9ecdd4c6d9fd819e7ce02a -->
<g id="node8" class="node">
<title>_f2485448b322a450afac39060561a1ba5651db175a9ecdd4c6d9fd819e7ce02a</title>
<polygon fill="none" stroke="#9b9b9b" points="542.25,-124.5 407.75,-124.5 407.75,-88.5 542.25,-88.5 542.25,-124.5"/>
<text xml:space="preserve" text-anchor="middle" x="475" y="-101.45" font-family="Times,serif" font-size="14.00">owl:versionIRI object</text>
</g>
<!-- _40c452addb86544e9b40de1944b297b1161f8f5ce8439cbe319e678707c846f2&#45;&gt;_f2485448b322a450afac39060561a1ba5651db175a9ecdd4c6d9fd819e7ce02a -->
<g id="edge4" class="edge">
<title>_40c452addb86544e9b40de1944b297b1161f8f5ce8439cbe319e678707c846f2&#45;&gt;_f2485448b322a450afac39060561a1ba5651db175a9ecdd4c6d9fd819e7ce02a</title>
<path fill="none" stroke="gray" stroke-dasharray="5,2" d="M487.84,-176.91C485.68,-165.26 482.78,-149.55 480.28,-136.02"/>
<polygon fill="gray" stroke="gray" points="483.75,-135.54 478.48,-126.34 476.86,-136.81 483.75,-135.54"/>
<text xml:space="preserve" text-anchor="middle" x="530.18" y="-145.7" font-family="Times,serif" font-size="14.00">owl:priorVersion</text>
</g>
<!-- _75f66095baa60592fcc7e97fa489026e7d6d757a63fd11c6624a34d06a3633b4 -->
<g id="node9" class="node">
<title>_75f66095baa60592fcc7e97fa489026e7d6d757a63fd11c6624a34d06a3633b4</title>
<polygon fill="none" stroke="black" points="658.5,-213 567.5,-213 567.5,-177 658.5,-177 658.5,-213"/>
<text xml:space="preserve" text-anchor="middle" x="613" y="-189.95" font-family="Times,serif" font-size="14.00">owl:Ontology</text>
</g>
<!-- _44a157d5fabe5bbf54dd1f384ccfb8f02ceba69069cdc8888499da1b7930714f -->
<g id="node10" class="node">
<title>_44a157d5fabe5bbf54dd1f384ccfb8f02ceba69069cdc8888499da1b7930714f</title>
<polygon fill="none" stroke="#9b9b9b" points="695.25,-124.5 560.75,-124.5 560.75,-88.5 695.25,-88.5 695.25,-124.5"/>
<text xml:space="preserve" text-anchor="middle" x="628" y="-101.45" font-family="Times,serif" font-size="14.00">owl:versionIRI object</text>
</g>
<!-- _75f66095baa60592fcc7e97fa489026e7d6d757a63fd11c6624a34d06a3633b4&#45;&gt;_44a157d5fabe5bbf54dd1f384ccfb8f02ceba69069cdc8888499da1b7930714f -->
<g id="edge5" class="edge">
<title>_75f66095baa60592fcc7e97fa489026e7d6d757a63fd11c6624a34d06a3633b4&#45;&gt;_44a157d5fabe5bbf54dd1f384ccfb8f02ceba69069cdc8888499da1b7930714f</title>
<path fill="none" stroke="gray" d="M615.96,-176.91C617.98,-165.26 620.71,-149.55 623.05,-136.02"/>
<polygon fill="gray" stroke="gray" points="626.47,-136.79 624.73,-126.34 619.58,-135.6 626.47,-136.79"/>
<text xml:space="preserve" text-anchor="middle" x="662.72" y="-145.7" font-family="Times,serif" font-size="14.00">owl:versionIRI</text>
</g>
<!-- _dc7a6d281f729cbeaa414a9670addb56912f2be036498ebf27c9d1ae3c2d462e -->
<g id="node11" class="node">
<title>_dc7a6d281f729cbeaa414a9670addb56912f2be036498ebf27c9d1ae3c2d462e</title>
<polygon fill="none" stroke="#9b9b9b" points="1195.5,-124.5 966.5,-124.5 966.5,-88.5 1195.5,-88.5 1195.5,-124.5"/>
<text xml:space="preserve" text-anchor="middle" x="1081" y="-101.45" font-family="Times,serif" font-size="14.00">IRI &#45; http://www.w3.org/ns/dx/prof/1.0</text>
</g>
<!-- _ef411fe8fcaa0f26fd6d42d8672c49f4527427890f7880833a41e98582cea353 -->
<g id="node12" class="node">
<title>_ef411fe8fcaa0f26fd6d42d8672c49f4527427890f7880833a41e98582cea353</title>
<polygon fill="none" stroke="#9b9b9b" points="1147.62,-36 820.38,-36 820.38,0 1147.62,0 1147.62,-36"/>
<text xml:space="preserve" text-anchor="middle" x="984" y="-12.95" font-family="Times,serif" font-size="14.00">IRI &#45; https://ontology.unifiedcyberontology.org/owl/1.4.0</text>
</g>
<!-- _c7f3d2538524bd8575cde368ba1de43430b3acf816e7c430a3ab938efef654ad -->
<g id="node13" class="node">
<title>_c7f3d2538524bd8575cde368ba1de43430b3acf816e7c430a3ab938efef654ad</title>
<polygon fill="none" stroke="black" points="959.25,-213 710.75,-213 710.75,-177 959.25,-177 959.25,-213"/>
<text xml:space="preserve" text-anchor="middle" x="835" y="-189.95" font-family="Times,serif" font-size="14.00">IRI &#45; http://example.org/ontology/cdo&#45;prof</text>
</g>
<!-- _c7f3d2538524bd8575cde368ba1de43430b3acf816e7c430a3ab938efef654ad&#45;&gt;_dc7a6d281f729cbeaa414a9670addb56912f2be036498ebf27c9d1ae3c2d462e -->
<g id="edge8" class="edge">
<title>_c7f3d2538524bd8575cde368ba1de43430b3acf816e7c430a3ab938efef654ad&#45;&gt;_dc7a6d281f729cbeaa414a9670addb56912f2be036498ebf27c9d1ae3c2d462e</title>
<path fill="none" stroke="black" d="M897.82,-176.56C915.75,-171.26 935.24,-165.19 953,-159 978.69,-150.04 1006.79,-138.89 1030.1,-129.26"/>
<polygon fill="none" stroke="black" points="1031.16,-132.61 1039.05,-125.54 1028.47,-126.15 1031.16,-132.61"/>
<text xml:space="preserve" text-anchor="middle" x="1028.66" y="-145.7" font-family="Times,serif" font-size="14.00">owl:imports</text>
</g>
<!-- _7e7fcdca06e527648f2f5f757451b77691e8c0694969f0d9bb23885f136d5618 -->
<g id="node15" class="node">
<title>_7e7fcdca06e527648f2f5f757451b77691e8c0694969f0d9bb23885f136d5618</title>
<polygon fill="none" stroke="black" points="948.5,-124.5 719.5,-124.5 719.5,-88.5 948.5,-88.5 948.5,-124.5"/>
<text xml:space="preserve" text-anchor="middle" x="834" y="-101.45" font-family="Times,serif" font-size="14.00">IRI &#45; http://example.org/shapes/sh&#45;prof</text>
</g>
<!-- _c7f3d2538524bd8575cde368ba1de43430b3acf816e7c430a3ab938efef654ad&#45;&gt;_7e7fcdca06e527648f2f5f757451b77691e8c0694969f0d9bb23885f136d5618 -->
<g id="edge6" class="edge">
<title>_c7f3d2538524bd8575cde368ba1de43430b3acf816e7c430a3ab938efef654ad&#45;&gt;_7e7fcdca06e527648f2f5f757451b77691e8c0694969f0d9bb23885f136d5618</title>
<path fill="none" stroke="black" d="M834.8,-176.91C834.67,-165.26 834.49,-149.55 834.33,-136.02"/>
<polygon fill="black" stroke="black" points="837.83,-136.32 834.22,-126.36 830.83,-136.4 837.83,-136.32"/>
<text xml:space="preserve" text-anchor="middle" x="891.59" y="-145.7" font-family="Times,serif" font-size="14.00">dcterms:conformsTo</text>
</g>
<!-- _104e7bcaa55bc08d018828107e55543f900143a3e9d6427d84e0e78a7797f13d -->
<g id="node14" class="node">
<title>_104e7bcaa55bc08d018828107e55543f900143a3e9d6427d84e0e78a7797f13d</title>
<polygon fill="none" stroke="black" points="1185,-213 977,-213 977,-177 1185,-177 1185,-213"/>
<text xml:space="preserve" text-anchor="middle" x="1081" y="-189.95" font-family="Times,serif" font-size="14.00">IRI &#45; http://www.w3.org/ns/dx/prof</text>
</g>
<!-- _104e7bcaa55bc08d018828107e55543f900143a3e9d6427d84e0e78a7797f13d&#45;&gt;_dc7a6d281f729cbeaa414a9670addb56912f2be036498ebf27c9d1ae3c2d462e -->
<g id="edge11" class="edge">
<title>_104e7bcaa55bc08d018828107e55543f900143a3e9d6427d84e0e78a7797f13d&#45;&gt;_dc7a6d281f729cbeaa414a9670addb56912f2be036498ebf27c9d1ae3c2d462e</title>
<path fill="none" stroke="gray" d="M1081,-176.91C1081,-165.26 1081,-149.55 1081,-136.02"/>
<polygon fill="gray" stroke="gray" points="1084.5,-136.36 1081,-126.36 1077.5,-136.36 1084.5,-136.36"/>
<text xml:space="preserve" text-anchor="middle" x="1121.88" y="-145.7" font-family="Times,serif" font-size="14.00">owl:versionIRI</text>
</g>
<!-- _7e7fcdca06e527648f2f5f757451b77691e8c0694969f0d9bb23885f136d5618&#45;&gt;_ef411fe8fcaa0f26fd6d42d8672c49f4527427890f7880833a41e98582cea353 -->
<g id="edge9" class="edge">
<title>_7e7fcdca06e527648f2f5f757451b77691e8c0694969f0d9bb23885f136d5618&#45;&gt;_ef411fe8fcaa0f26fd6d42d8672c49f4527427890f7880833a41e98582cea353</title>
<path fill="none" stroke="black" d="M863.99,-88.2C886.91,-74.99 918.73,-56.64 943.84,-42.16"/>
<polygon fill="none" stroke="black" points="945.58,-45.2 952.49,-37.17 942.08,-39.13 945.58,-45.2"/>
<text xml:space="preserve" text-anchor="middle" x="955.44" y="-57.2" font-family="Times,serif" font-size="14.00">owl:imports</text>
</g>
<!-- _f2e5b02a171f32dd0a9863c360551d6757f93137b44a6a36e87bb072376e7351 -->
<g id="node16" class="node">
<title>_f2e5b02a171f32dd0a9863c360551d6757f93137b44a6a36e87bb072376e7351</title>
<polygon fill="none" stroke="black" points="1508.88,-124.5 1213.12,-124.5 1213.12,-88.5 1508.88,-88.5 1508.88,-124.5"/>
<text xml:space="preserve" text-anchor="middle" x="1361" y="-101.45" font-family="Times,serif" font-size="14.00">IRI &#45; https://ontology.unifiedcyberontology.org/owl</text>
</g>
<!-- _f2e5b02a171f32dd0a9863c360551d6757f93137b44a6a36e87bb072376e7351&#45;&gt;_ef411fe8fcaa0f26fd6d42d8672c49f4527427890f7880833a41e98582cea353 -->
<g id="edge12" class="edge">
<title>_f2e5b02a171f32dd0a9863c360551d6757f93137b44a6a36e87bb072376e7351&#45;&gt;_ef411fe8fcaa0f26fd6d42d8672c49f4527427890f7880833a41e98582cea353</title>
<path fill="none" stroke="gray" d="M1261.48,-88.05C1233.8,-82.82 1203.78,-76.79 1176.25,-70.5 1135.95,-61.3 1091.34,-49.45 1055.24,-39.44"/>
<polygon fill="gray" stroke="gray" points="1056.35,-36.12 1045.78,-36.8 1054.47,-42.86 1056.35,-36.12"/>
<text xml:space="preserve" text-anchor="middle" x="1217.12" y="-57.2" font-family="Times,serif" font-size="14.00">owl:versionIRI</text>
</g>
<!-- _b508e8baa7623798f008be32f495492f7eb379649447af7738f40d11b96a73ac -->
<g id="node17" class="node">
<title>_b508e8baa7623798f008be32f495492f7eb379649447af7738f40d11b96a73ac</title>
<polygon fill="none" stroke="black" points="1555.62,-36 1228.38,-36 1228.38,0 1555.62,0 1555.62,-36"/>
<text xml:space="preserve" text-anchor="middle" x="1392" y="-12.95" font-family="Times,serif" font-size="14.00">IRI &#45; https://ontology.unifiedcyberontology.org/owl/1.3.0</text>
</g>
<!-- _f2e5b02a171f32dd0a9863c360551d6757f93137b44a6a36e87bb072376e7351&#45;&gt;_b508e8baa7623798f008be32f495492f7eb379649447af7738f40d11b96a73ac -->
<g id="edge7" class="edge">
<title>_f2e5b02a171f32dd0a9863c360551d6757f93137b44a6a36e87bb072376e7351&#45;&gt;_b508e8baa7623798f008be32f495492f7eb379649447af7738f40d11b96a73ac</title>
<path fill="none" stroke="gray" stroke-dasharray="5,2" d="M1286.38,-88.1C1267.51,-80.07 1255.42,-68.93 1266.75,-54 1270.72,-48.77 1279.36,-44.11 1290.33,-40.02"/>
<polygon fill="gray" stroke="gray" points="1291.2,-43.42 1299.57,-36.92 1288.98,-36.79 1291.2,-43.42"/>
<text xml:space="preserve" text-anchor="middle" x="1350.38" y="-57.2" font-family="Times,serif" font-size="14.00">owl:backwardCompatibleWith</text>
</g>
<!-- _f2e5b02a171f32dd0a9863c360551d6757f93137b44a6a36e87bb072376e7351&#45;&gt;_b508e8baa7623798f008be32f495492f7eb379649447af7738f40d11b96a73ac -->
<g id="edge10" class="edge">
<title>_f2e5b02a171f32dd0a9863c360551d6757f93137b44a6a36e87bb072376e7351&#45;&gt;_b508e8baa7623798f008be32f495492f7eb379649447af7738f40d11b96a73ac</title>
<path fill="none" stroke="gray" stroke-dasharray="5,2" d="M1415.59,-88.14C1422.9,-83.54 1429.43,-77.76 1434,-70.5 1439.72,-61.42 1435.74,-52.14 1428.35,-44"/>
<polygon fill="gray" stroke="gray" points="1430.88,-41.58 1421.17,-37.33 1426.11,-46.7 1430.88,-41.58"/>
<text xml:space="preserve" text-anchor="middle" x="1482.47" y="-57.2" font-family="Times,serif" font-size="14.00">owl:priorVersion</text>
</g>
</g>
</svg>
